<svg xmlns="http://www.w3.org/2000/svg" width="98.365" height="99.566" viewBox="0 0 98.365 99.566">
  <g id="Page-1" transform="translate(0 -18.325)">
    <g id="Group" transform="translate(0 18)">
      <g id="Page-1-2" data-name="Page-1">
        <g id="Group-3" transform="translate(0 0.129)">
          <path id="Fill-1" d="M98.365,48.875c0,26.884-22.02,48.678-49.182,48.678S0,75.759,0,48.875,22.02.2,49.182.2,98.365,21.99,98.365,48.875" fill="#feba35" fill-rule="evenodd"/>
        </g>
        <path id="Fill-4" d="M56.663,33.739H63.23s0,0,0,0v1.925a0,0,0,0,1,0,0H56.663a0,0,0,0,1,0,0V33.74s0,0,0,0" fill="#e2e2e2" fill-rule="evenodd"/>
        <path id="Fill-6" d="M49.693,35.119H69.608s0,0,0,0v1.923s0,0,0,0H49.693a0,0,0,0,1,0,0V35.122a0,0,0,0,1,0,0" fill="#e2e2e2" fill-rule="evenodd"/>
        <path id="Fill-8" d="M42.2,36.7H77.235a0,0,0,0,1,0,0v1.925a0,0,0,0,1,0,0H42.2s0,0,0,0V36.7s0,0,0,0" fill="#e2e2e2" fill-rule="evenodd"/>
        <path id="Fill-10" d="M35.622,38.407H85.454a0,0,0,0,1,0,0v1.923a0,0,0,0,1,0,0H35.622s0,0,0,0V38.409s0,0,0,0" fill="#e2e2e2" fill-rule="evenodd"/>
        <path id="Fill-12" d="M28.417,93.431H91.5a.007.007,0,0,1,.008.007v6.186a.008.008,0,0,1-.008.008H28.417a.008.008,0,0,1-.007-.008V93.438a.007.007,0,0,1,.007-.007" fill="#e2e2e2" fill-rule="evenodd"/>
        <path id="Stroke-14" d="M28.417,93.431H91.5a.007.007,0,0,1,.008.007v6.186a.008.008,0,0,1-.008.008H28.417a.008.008,0,0,1-.007-.008V93.438A.007.007,0,0,1,28.417,93.431Z" fill="none" stroke="#999" stroke-width="0.519" fill-rule="evenodd"/>
        <path id="Fill-16" d="M28.422,93.372H91.49s0,0,0,0v2.264s0,0,0,0H28.422s0,0,0,0V93.375s0,0,0,0" fill="#e2e2e2" fill-rule="evenodd"/>
        <path id="Stroke-18" d="M28.422,93.372H91.49s0,0,0,0v2.264s0,0,0,0H28.422s0,0,0,0V93.375S28.42,93.372,28.422,93.372Z" fill="none" stroke="#999" stroke-width="0.523" fill-rule="evenodd"/>
        <path id="Fill-20" d="M29.7,50.561h5.489a.051.051,0,0,1,.05.05V90.989a.051.051,0,0,1-.05.049H29.7a.049.049,0,0,1-.049-.049V50.611a.05.05,0,0,1,.049-.05" fill="#e2e2e2" fill-rule="evenodd"/>
        <path id="Stroke-22" d="M29.7,50.561h5.489a.051.051,0,0,1,.05.05V90.989a.051.051,0,0,1-.05.049H29.7a.049.049,0,0,1-.049-.049V50.611A.05.05,0,0,1,29.7,50.561Z" fill="none" stroke="#999" stroke-width="0.537" fill-rule="evenodd"/>
        <path id="Fill-24" d="M29.594,91.045h5.9a.647.647,0,0,1,.65.648v.334a.648.648,0,0,1-.65.648h-5.9a.647.647,0,0,1-.648-.648v-.334a.646.646,0,0,1,.648-.648" fill="#e2e2e2" fill-rule="evenodd"/>
        <path id="Stroke-26" d="M29.594,91.045h5.9a.647.647,0,0,1,.65.648v.334a.648.648,0,0,1-.65.648h-5.9a.647.647,0,0,1-.648-.648v-.334A.646.646,0,0,1,29.594,91.045Z" fill="none" stroke="#999" stroke-width="0.472" fill-rule="evenodd"/>
        <path id="Fill-28" d="M28.4,92.045h8.266s0,0,0,0v1.335a0,0,0,0,1,0,0H28.4V92.048a0,0,0,0,1,0,0" fill="#e2e2e2" fill-rule="evenodd"/>
        <path id="Stroke-30" d="M28.4,92.045h8.266s0,0,0,0v1.335a0,0,0,0,1,0,0H28.4V92.048A0,0,0,0,1,28.4,92.045Z" fill="none" stroke="#999" stroke-width="0.464" fill-rule="evenodd"/>
        <path id="Fill-32" d="M29.578,48.55h5.583a.8.8,0,0,1,.8.8v.412a.8.8,0,0,1-.8.8H29.578a.8.8,0,0,1-.8-.8v-.412a.8.8,0,0,1,.8-.8" fill="#e2e2e2" fill-rule="evenodd"/>
        <path id="Stroke-34" d="M29.578,48.55h5.583a.8.8,0,0,1,.8.8v.412a.8.8,0,0,1-.8.8H29.578a.8.8,0,0,1-.8-.8v-.412A.8.8,0,0,1,29.578,48.55Z" fill="none" stroke="#999" stroke-width="0.523" fill-rule="evenodd"/>
        <path id="Fill-36" d="M28.22,48.16H36.5s0,0,0,0V49.3H28.219V48.161s0,0,0,0" fill="#e2e2e2" fill-rule="evenodd"/>
        <path id="Stroke-38" d="M28.22,48.16H36.5s0,0,0,0V49.3H28.219V48.161S28.219,48.16,28.22,48.16Z" fill="none" stroke="#999" stroke-width="0.429" fill-rule="evenodd"/>
        <path id="Fill-40" d="M84.538,50.568h5.488a.049.049,0,0,1,.05.049V90.994a.049.049,0,0,1-.05.049H84.538a.049.049,0,0,1-.049-.049V50.617a.048.048,0,0,1,.049-.049" fill="#e2e2e2" fill-rule="evenodd"/>
        <path id="Stroke-42" d="M84.538,50.568h5.488a.049.049,0,0,1,.05.049V90.994a.049.049,0,0,1-.05.049H84.538a.049.049,0,0,1-.049-.049V50.617A.048.048,0,0,1,84.538,50.568Z" fill="none" stroke="#999" stroke-width="0.537" fill-rule="evenodd"/>
        <path id="Fill-44" d="M84.437,91.05h5.9a.647.647,0,0,1,.648.648v.335a.646.646,0,0,1-.648.648h-5.9a.647.647,0,0,1-.65-.648V91.7a.648.648,0,0,1,.65-.648" fill="#e2e2e2" fill-rule="evenodd"/>
        <path id="Stroke-46" d="M84.437,91.05h5.9a.647.647,0,0,1,.648.648v.335a.646.646,0,0,1-.648.648h-5.9a.647.647,0,0,1-.65-.648V91.7A.648.648,0,0,1,84.437,91.05Z" fill="none" stroke="#999" stroke-width="0.472" fill-rule="evenodd"/>
        <path id="Fill-48" d="M83.245,92.051h8.267a0,0,0,0,1,0,0v1.335a0,0,0,0,1,0,0H83.245s0,0,0,0V92.053s0,0,0,0" fill="#e2e2e2" fill-rule="evenodd"/>
        <path id="Stroke-50" d="M83.245,92.051h8.267a0,0,0,0,1,0,0v1.335a0,0,0,0,1,0,0H83.245s0,0,0,0V92.053S83.244,92.051,83.245,92.051Z" fill="none" stroke="#999" stroke-width="0.464" fill-rule="evenodd"/>
        <path id="Fill-52" d="M84.419,48.555H90a.8.8,0,0,1,.8.8v.411a.8.8,0,0,1-.8.8H84.419a.8.8,0,0,1-.8-.8v-.411a.8.8,0,0,1,.8-.8" fill="#e2e2e2" fill-rule="evenodd"/>
        <path id="Stroke-54" d="M84.419,48.555H90a.8.8,0,0,1,.8.8v.411a.8.8,0,0,1-.8.8H84.419a.8.8,0,0,1-.8-.8v-.411A.8.8,0,0,1,84.419,48.555Z" fill="none" stroke="#999" stroke-width="0.523" fill-rule="evenodd"/>
        <path id="Fill-56" d="M83.061,48.167h8.3a0,0,0,0,1,0,0V49.3a0,0,0,0,1,0,0h-8.3a0,0,0,0,1,0,0V48.168a0,0,0,0,1,0,0" fill="#e2e2e2" fill-rule="evenodd"/>
        <path id="Stroke-58" d="M83.061,48.167h8.3a0,0,0,0,1,0,0V49.3a0,0,0,0,1,0,0h-8.3a0,0,0,0,1,0,0V48.168A0,0,0,0,1,83.061,48.167Z" fill="none" stroke="#999" stroke-width="0.429" fill-rule="evenodd"/>
        <path id="Fill-60" d="M48.087,50.54h5.489a.049.049,0,0,1,.05.049V90.966a.049.049,0,0,1-.05.05H48.087a.05.05,0,0,1-.05-.05V50.589a.05.05,0,0,1,.05-.049" fill="#e2e2e2" fill-rule="evenodd"/>
        <path id="Stroke-62" d="M48.087,50.54h5.489a.049.049,0,0,1,.05.049V90.966a.049.049,0,0,1-.05.05H48.087a.05.05,0,0,1-.05-.05V50.589A.05.05,0,0,1,48.087,50.54Z" fill="none" stroke="#999" stroke-width="0.537" fill-rule="evenodd"/>
        <path id="Fill-64" d="M47.986,91.022h5.9a.647.647,0,0,1,.648.65V92a.647.647,0,0,1-.648.649h-5.9a.648.648,0,0,1-.65-.649v-.333a.648.648,0,0,1,.65-.65" fill="#e2e2e2" fill-rule="evenodd"/>
        <path id="Stroke-66" d="M47.986,91.022h5.9a.647.647,0,0,1,.648.65V92a.647.647,0,0,1-.648.649h-5.9a.648.648,0,0,1-.65-.649v-.333A.648.648,0,0,1,47.986,91.022Z" fill="none" stroke="#999" stroke-width="0.472" fill-rule="evenodd"/>
        <path id="Fill-68" d="M46.795,92.024h8.268v1.334a0,0,0,0,1,0,0H46.795s0,0,0,0V92.025a0,0,0,0,1,0,0" fill="#e2e2e2" fill-rule="evenodd"/>
        <path id="Stroke-70" d="M46.795,92.024h8.268v1.334a0,0,0,0,1,0,0H46.795s0,0,0,0V92.025A0,0,0,0,1,46.795,92.024Z" fill="none" stroke="#999" stroke-width="0.464" fill-rule="evenodd"/>
        <path id="Fill-72" d="M47.968,48.527h5.583a.8.8,0,0,1,.8.8v.412a.8.8,0,0,1-.8.8H47.968a.8.8,0,0,1-.8-.8v-.412a.8.8,0,0,1,.8-.8" fill="#e2e2e2" fill-rule="evenodd"/>
        <path id="Stroke-74" d="M47.968,48.527h5.583a.8.8,0,0,1,.8.8v.412a.8.8,0,0,1-.8.8H47.968a.8.8,0,0,1-.8-.8v-.412A.8.8,0,0,1,47.968,48.527Z" fill="none" stroke="#999" stroke-width="0.523" fill-rule="evenodd"/>
        <path id="Fill-76" d="M46.611,48.139h8.278s0,0,0,0v1.138H46.61V48.14a0,0,0,0,1,0,0" fill="#e2e2e2" fill-rule="evenodd"/>
        <path id="Stroke-78" d="M46.611,48.139h8.278s0,0,0,0v1.138H46.61V48.14A0,0,0,0,1,46.611,48.139Z" fill="none" stroke="#999" stroke-width="0.428" fill-rule="evenodd"/>
        <path id="Fill-80" d="M66.34,50.549h5.489a.05.05,0,0,1,.05.049V90.975a.051.051,0,0,1-.05.049H66.34a.05.05,0,0,1-.049-.049V50.6a.049.049,0,0,1,.049-.049" fill="#e2e2e2" fill-rule="evenodd"/>
        <path id="Stroke-82" d="M66.34,50.549h5.489a.05.05,0,0,1,.05.049V90.975a.051.051,0,0,1-.05.049H66.34a.05.05,0,0,1-.049-.049V50.6A.049.049,0,0,1,66.34,50.549Z" fill="none" stroke="#999" stroke-width="0.537" fill-rule="evenodd"/>
        <path id="Fill-84" d="M66.238,91.031h5.9a.647.647,0,0,1,.648.648v.334a.648.648,0,0,1-.648.648h-5.9a.648.648,0,0,1-.648-.648v-.334a.647.647,0,0,1,.648-.648" fill="#e2e2e2" fill-rule="evenodd"/>
        <path id="Stroke-86" d="M66.238,91.031h5.9a.647.647,0,0,1,.648.648v.334a.648.648,0,0,1-.648.648h-5.9a.648.648,0,0,1-.648-.648v-.334A.647.647,0,0,1,66.238,91.031Z" fill="none" stroke="#999" stroke-width="0.472" fill-rule="evenodd"/>
        <path id="Fill-88" d="M65.048,92.031h8.266a0,0,0,0,1,0,0v1.335H65.046V92.034a0,0,0,0,1,0,0" fill="#e2e2e2" fill-rule="evenodd"/>
        <path id="Stroke-90" d="M65.048,92.031h8.266a0,0,0,0,1,0,0v1.335H65.046V92.034A0,0,0,0,1,65.048,92.031Z" fill="none" stroke="#999" stroke-width="0.464" fill-rule="evenodd"/>
        <path id="Fill-92" d="M66.222,48.536h5.583a.8.8,0,0,1,.8.8v.412a.8.8,0,0,1-.8.8H66.222a.8.8,0,0,1-.8-.8v-.412a.8.8,0,0,1,.8-.8" fill="#e2e2e2" fill-rule="evenodd"/>
        <path id="Stroke-94" d="M66.222,48.536h5.583a.8.8,0,0,1,.8.8v.412a.8.8,0,0,1-.8.8H66.222a.8.8,0,0,1-.8-.8v-.412A.8.8,0,0,1,66.222,48.536Z" fill="none" stroke="#999" stroke-width="0.523" fill-rule="evenodd"/>
        <path id="Fill-96" d="M64.864,48.146h8.279s0,0,0,0v1.138H64.863V48.147s0,0,0,0" fill="#e2e2e2" fill-rule="evenodd"/>
        <path id="Stroke-98" d="M64.864,48.146h8.279s0,0,0,0v1.138H64.863V48.147S64.863,48.146,64.864,48.146Z" fill="none" stroke="#999" stroke-width="0.428" fill-rule="evenodd"/>
        <path id="Fill-100" d="M91.313,39.54,59.861,32.746s-.009,0-.01.007l-.084,1.833a.011.011,0,0,0,.009.011l31.451,6.794a.007.007,0,0,0,.009-.007l.085-1.833a.011.011,0,0,0-.009-.011" fill="#e2e2e2" fill-rule="evenodd"/>
        <path id="Stroke-102" d="M91.313,39.54,59.861,32.745a.009.009,0,0,0-.01.008l-.084,1.833a.012.012,0,0,0,.009.011l31.451,6.794a.007.007,0,0,0,.009-.007l.085-1.833A.011.011,0,0,0,91.313,39.54Z" fill="none" stroke="#999" stroke-width="0.521" fill-rule="evenodd"/>
        <path id="Fill-104" d="M28.227,39.554,59.842,32.76a.008.008,0,0,1,.01.007l.086,1.833a.012.012,0,0,1-.009.011L28.313,41.406c-.005,0-.009,0-.01-.007l-.084-1.833a.01.01,0,0,1,.008-.011" fill="#e2e2e2" fill-rule="evenodd"/>
        <path id="Stroke-106" d="M28.227,39.554,59.842,32.76a.008.008,0,0,1,.01.007l.086,1.833a.012.012,0,0,1-.009.011L28.313,41.406c-.005,0-.009,0-.01-.007l-.084-1.833A.01.01,0,0,1,28.227,39.554Z" fill="none" stroke="#999" stroke-width="0.522" fill-rule="evenodd"/>
        <path id="Fill-108" d="M59.714,32.86h.341a.6.6,0,0,1,.6.6v.532a.6.6,0,0,1-.6.6h-.341a.6.6,0,0,1-.6-.6v-.532a.6.6,0,0,1,.6-.6" fill="#e2e2e2" fill-rule="evenodd"/>
        <path id="Stroke-110" d="M59.714,32.86h.341a.6.6,0,0,1,.6.6v.532a.6.6,0,0,1-.6.6h-.341a.6.6,0,0,1-.6-.6v-.532A.6.6,0,0,1,59.714,32.86Z" fill="none" stroke="#999" stroke-width="0.446" fill-rule="evenodd"/>
        <path id="Fill-112" d="M55.6,33.712l.333-.074a.594.594,0,0,1,.712.453l.115.52a.593.593,0,0,1-.452.712l-.333.074a.6.6,0,0,1-.712-.453l-.116-.52a.6.6,0,0,1,.453-.712" fill="#e2e2e2" fill-rule="evenodd"/>
        <path id="Stroke-114" d="M55.6,33.712l.333-.074a.594.594,0,0,1,.712.453l.115.52a.593.593,0,0,1-.452.712l-.333.074a.6.6,0,0,1-.712-.453l-.116-.52A.6.6,0,0,1,55.6,33.712Z" fill="none" stroke="#999" stroke-width="0.446" fill-rule="evenodd"/>
        <path id="Fill-116" d="M52.062,34.457l.333-.074a.6.6,0,0,1,.712.453l.116.52a.6.6,0,0,1-.452.712l-.333.075a.6.6,0,0,1-.711-.454l-.116-.519a.6.6,0,0,1,.453-.713" fill="#e2e2e2" fill-rule="evenodd"/>
        <path id="Stroke-118" d="M52.062,34.457l.333-.074a.6.6,0,0,1,.712.453l.116.52a.6.6,0,0,1-.452.712l-.333.075a.6.6,0,0,1-.711-.454l-.116-.519A.6.6,0,0,1,52.062,34.457Z" fill="none" stroke="#999" stroke-width="0.446" fill-rule="evenodd"/>
        <path id="Fill-120" d="M48.5,35.2l.332-.074a.6.6,0,0,1,.713.452l.116.52a.6.6,0,0,1-.454.712l-.332.074a.594.594,0,0,1-.712-.453l-.116-.52A.6.6,0,0,1,48.5,35.2" fill="#e2e2e2" fill-rule="evenodd"/>
        <path id="Stroke-122" d="M48.5,35.2l.332-.074a.6.6,0,0,1,.713.452l.116.52a.6.6,0,0,1-.454.712l-.332.074a.594.594,0,0,1-.712-.453l-.116-.52A.6.6,0,0,1,48.5,35.2Z" fill="none" stroke="#999" stroke-width="0.446" fill-rule="evenodd"/>
        <path id="Fill-124" d="M44.936,35.965l.333-.075a.6.6,0,0,1,.712.454l.116.519a.6.6,0,0,1-.453.713l-.333.074A.6.6,0,0,1,44.6,37.2l-.116-.52a.6.6,0,0,1,.453-.712" fill="#e2e2e2" fill-rule="evenodd"/>
        <path id="Stroke-126" d="M44.936,35.965l.333-.075a.6.6,0,0,1,.712.454l.116.519a.6.6,0,0,1-.453.713l-.333.074A.6.6,0,0,1,44.6,37.2l-.116-.52A.6.6,0,0,1,44.936,35.965Z" fill="none" stroke="#999" stroke-width="0.446" fill-rule="evenodd"/>
        <path id="Fill-128" d="M41.41,36.715l.333-.074a.594.594,0,0,1,.712.453l.116.52a.594.594,0,0,1-.453.712l-.333.074a.594.594,0,0,1-.712-.453l-.116-.52a.6.6,0,0,1,.453-.712" fill="#e2e2e2" fill-rule="evenodd"/>
        <path id="Stroke-130" d="M41.41,36.715l.333-.074a.594.594,0,0,1,.712.453l.116.52a.6.6,0,0,1-.453.712l-.333.074a.6.6,0,0,1-.712-.453l-.116-.52A.6.6,0,0,1,41.41,36.715Z" fill="none" stroke="#999" stroke-width="0.446" fill-rule="evenodd"/>
        <path id="Fill-132" d="M37.882,37.472l.332-.075a.6.6,0,0,1,.712.452l.116.52a.594.594,0,0,1-.453.712l-.333.075a.6.6,0,0,1-.712-.453l-.116-.52a.6.6,0,0,1,.454-.712" fill="#e2e2e2" fill-rule="evenodd"/>
        <path id="Stroke-134" d="M37.882,37.472l.332-.075a.6.6,0,0,1,.712.452l.116.52a.594.594,0,0,1-.453.712l-.333.075a.6.6,0,0,1-.712-.453l-.116-.52A.6.6,0,0,1,37.882,37.472Z" fill="none" stroke="#999" stroke-width="0.446" fill-rule="evenodd"/>
        <path id="Fill-136" d="M34.354,38.228l.332-.075a.6.6,0,0,1,.712.454l.116.519a.6.6,0,0,1-.452.713l-.332.074a.6.6,0,0,1-.713-.453l-.115-.52a.6.6,0,0,1,.454-.712" fill="#e2e2e2" fill-rule="evenodd"/>
        <path id="Stroke-138" d="M34.354,38.228l.332-.075a.6.6,0,0,1,.712.454l.116.519a.6.6,0,0,1-.452.713l-.332.074a.6.6,0,0,1-.713-.453l-.115-.52A.6.6,0,0,1,34.354,38.228Z" fill="none" stroke="#999" stroke-width="0.446" fill-rule="evenodd"/>
        <path id="Fill-140" d="M30.465,39.076,30.8,39a.594.594,0,0,1,.712.452l.116.52a.6.6,0,0,1-.453.712l-.332.074a.6.6,0,0,1-.713-.453l-.116-.52a.6.6,0,0,1,.454-.712" fill="#e2e2e2" fill-rule="evenodd"/>
        <path id="Stroke-142" d="M30.465,39.076,30.8,39a.594.594,0,0,1,.712.452l.116.52a.6.6,0,0,1-.453.712l-.332.074a.6.6,0,0,1-.713-.453l-.116-.52A.6.6,0,0,1,30.465,39.076Z" fill="none" stroke="#999" stroke-width="0.446" fill-rule="evenodd"/>
        <path id="Fill-144" d="M91.434,39.547,59.882,32.753a.007.007,0,0,0-.009.007L59.788,34.6a.01.01,0,0,0,.007.01L91.347,41.4a.008.008,0,0,0,.01-.006l.084-1.834a.01.01,0,0,0-.007-.011" fill="#e2e2e2" fill-rule="evenodd"/>
        <path id="Stroke-146" d="M91.434,39.547,59.882,32.753a.007.007,0,0,0-.009.007L59.788,34.6a.01.01,0,0,0,.007.01L91.347,41.4a.008.008,0,0,0,.01-.006l.084-1.834A.01.01,0,0,0,91.434,39.547Z" fill="none" stroke="#999" stroke-width="0.522" fill-rule="evenodd"/>
        <path id="Fill-148" d="M60.01,32.854h-.339a.6.6,0,0,0-.6.6v.533a.6.6,0,0,0,.6.6h.339a.6.6,0,0,0,.6-.6v-.533a.6.6,0,0,0-.6-.6" fill="#e2e2e2" fill-rule="evenodd"/>
        <path id="Stroke-150" d="M60.01,32.854h-.339a.6.6,0,0,0-.6.6v.533a.6.6,0,0,0,.6.6h.339a.6.6,0,0,0,.6-.6v-.533A.6.6,0,0,0,60.01,32.854Z" fill="none" stroke="#999" stroke-width="0.446" fill-rule="evenodd"/>
        <path id="Fill-152" d="M64.113,33.706l-.332-.074a.6.6,0,0,0-.711.453l-.116.52a.6.6,0,0,0,.453.712l.332.075a.6.6,0,0,0,.711-.454l.116-.519a.6.6,0,0,0-.452-.713" fill="#e2e2e2" fill-rule="evenodd"/>
        <path id="Stroke-154" d="M64.113,33.706l-.332-.074a.6.6,0,0,0-.711.453l-.116.52a.6.6,0,0,0,.453.712l.332.075a.6.6,0,0,0,.711-.454l.116-.519A.6.6,0,0,0,64.113,33.706Z" fill="none" stroke="#999" stroke-width="0.446" fill-rule="evenodd"/>
        <path id="Fill-156" d="M67.646,34.452l-.332-.075a.594.594,0,0,0-.71.454l-.116.52a.6.6,0,0,0,.452.712l.333.074a.6.6,0,0,0,.711-.453l.115-.52a.594.594,0,0,0-.452-.712" fill="#e2e2e2" fill-rule="evenodd"/>
        <path id="Stroke-158" d="M67.647,34.452l-.332-.075a.594.594,0,0,0-.71.454l-.116.52a.6.6,0,0,0,.452.712l.333.074a.6.6,0,0,0,.71-.453l.115-.52A.6.6,0,0,0,67.647,34.452Z" fill="none" stroke="#999" stroke-width="0.446" fill-rule="evenodd"/>
        <path id="Fill-160" d="M71.2,35.2l-.332-.074a.6.6,0,0,0-.71.453l-.116.52a.6.6,0,0,0,.453.712l.332.075a.594.594,0,0,0,.71-.454l.116-.52A.6.6,0,0,0,71.2,35.2" fill="#e2e2e2" fill-rule="evenodd"/>
        <path id="Stroke-162" d="M71.2,35.2l-.332-.074a.6.6,0,0,0-.71.453l-.116.52a.6.6,0,0,0,.453.712l.332.075a.594.594,0,0,0,.71-.454l.116-.52A.6.6,0,0,0,71.2,35.2Z" fill="none" stroke="#999" stroke-width="0.446" fill-rule="evenodd"/>
        <path id="Fill-164" d="M74.757,35.958l-.332-.074a.593.593,0,0,0-.711.453l-.116.52a.6.6,0,0,0,.453.712l.332.074a.593.593,0,0,0,.711-.453l.116-.519a.6.6,0,0,0-.453-.712" fill="#e2e2e2" fill-rule="evenodd"/>
        <path id="Stroke-166" d="M74.757,35.958l-.332-.074a.593.593,0,0,0-.711.453l-.116.52a.6.6,0,0,0,.453.712l.332.074a.593.593,0,0,0,.711-.453l.116-.519A.6.6,0,0,0,74.757,35.958Z" fill="none" stroke="#999" stroke-width="0.446" fill-rule="evenodd"/>
        <path id="Fill-168" d="M78.277,36.708l-.332-.074a.6.6,0,0,0-.712.453l-.114.52a.594.594,0,0,0,.451.712l.332.075a.6.6,0,0,0,.711-.454l.116-.519a.6.6,0,0,0-.451-.713" fill="#e2e2e2" fill-rule="evenodd"/>
        <path id="Stroke-170" d="M78.277,36.708l-.332-.074a.6.6,0,0,0-.712.453l-.114.52a.594.594,0,0,0,.451.712l.332.075a.6.6,0,0,0,.711-.454l.116-.519A.6.6,0,0,0,78.277,36.708Z" fill="none" stroke="#999" stroke-width="0.446" fill-rule="evenodd"/>
        <path id="Fill-172" d="M81.8,37.466l-.332-.074a.6.6,0,0,0-.712.453l-.115.52a.6.6,0,0,0,.451.712l.332.074a.592.592,0,0,0,.71-.453l.116-.52a.594.594,0,0,0-.451-.712" fill="#e2e2e2" fill-rule="evenodd"/>
        <path id="Stroke-174" d="M81.8,37.466l-.332-.074a.6.6,0,0,0-.712.453l-.115.52a.6.6,0,0,0,.451.712l.332.074a.592.592,0,0,0,.71-.453l.116-.52A.594.594,0,0,0,81.8,37.466Z" fill="none" stroke="#999" stroke-width="0.446" fill-rule="evenodd"/>
        <path id="Fill-176" d="M85.319,38.221l-.332-.074a.593.593,0,0,0-.711.453l-.116.52a.6.6,0,0,0,.453.712l.332.073a.594.594,0,0,0,.711-.453l.116-.519a.6.6,0,0,0-.453-.712" fill="#e2e2e2" fill-rule="evenodd"/>
        <path id="Stroke-178" d="M85.319,38.221l-.332-.074a.593.593,0,0,0-.711.453l-.116.52a.6.6,0,0,0,.453.712l.332.073a.594.594,0,0,0,.711-.453l.116-.519A.6.6,0,0,0,85.319,38.221Z" fill="none" stroke="#999" stroke-width="0.446" fill-rule="evenodd"/>
        <path id="Fill-180" d="M89.2,39.069,88.868,39a.593.593,0,0,0-.71.453l-.116.52a.594.594,0,0,0,.451.711l.333.074a.594.594,0,0,0,.71-.453l.115-.52a.6.6,0,0,0-.451-.712" fill="#e2e2e2" fill-rule="evenodd"/>
        <path id="Stroke-182" d="M89.2,39.069,88.868,39a.593.593,0,0,0-.71.453l-.116.52a.594.594,0,0,0,.451.711l.333.074a.594.594,0,0,0,.71-.453l.115-.52A.6.6,0,0,0,89.2,39.069Z" fill="none" stroke="#999" stroke-width="0.446" fill-rule="evenodd"/>
        <path id="Fill-184" d="M28.233,39.874H91.362a.01.01,0,0,1,.01.01v8.255a.011.011,0,0,1-.01.01H28.233a.01.01,0,0,1-.01-.01V39.884a.01.01,0,0,1,.01-.01" fill="#e2e2e2" fill-rule="evenodd"/>
        <path id="Stroke-186" d="M28.233,39.874H91.362a.01.01,0,0,1,.01.01v8.255a.011.011,0,0,1-.01.01H28.233a.01.01,0,0,1-.01-.01V39.884A.01.01,0,0,1,28.233,39.874Z" fill="none" stroke="#999" stroke-width="0.523" fill-rule="evenodd"/>
        <path id="Fill-188" d="M72.537,44.007a3.452,3.452,0,1,1-3.451-3.42,3.436,3.436,0,0,1,3.451,3.42" fill="#e2e2e2" fill-rule="evenodd"/>
        <path id="Stroke-190" d="M72.537,44.007a3.452,3.452,0,1,1-3.451-3.42A3.436,3.436,0,0,1,72.537,44.007Z" fill="none" stroke="#999" stroke-width="0.523" fill-rule="evenodd"/>
        <path id="Fill-192" d="M70.817,44.007a1.732,1.732,0,1,1-1.731-1.731,1.732,1.732,0,0,1,1.731,1.731" fill="#e2e2e2" fill-rule="evenodd"/>
        <path id="Stroke-194" d="M70.817,44.007a1.732,1.732,0,1,1-1.731-1.731A1.732,1.732,0,0,1,70.817,44.007Z" fill="none" stroke="#999" stroke-width="0.523" fill-rule="evenodd"/>
        <path id="Fill-196" d="M69.369,41.5a.847.847,0,1,1-.847-.828.838.838,0,0,1,.847.828" fill="#e2e2e2" fill-rule="evenodd"/>
        <path id="Stroke-198" d="M69.369,41.5a.847.847,0,1,1-.847-.828A.838.838,0,0,1,69.369,41.5Z" fill="none" stroke="#999" stroke-width="0.489" fill-rule="evenodd"/>
        <path id="Fill-200" d="M70.524,41.507a.846.846,0,1,1-.847-.826.837.837,0,0,1,.847.826" fill="#e2e2e2" fill-rule="evenodd"/>
        <path id="Stroke-202" d="M70.524,41.507a.846.846,0,1,1-.847-.826A.837.837,0,0,1,70.524,41.507Z" fill="none" stroke="#999" stroke-width="0.489" fill-rule="evenodd"/>
        <path id="Fill-204" d="M71.28,41.787a.847.847,0,1,1-.847-.828.837.837,0,0,1,.847.828" fill="#e2e2e2" fill-rule="evenodd"/>
        <path id="Stroke-206" d="M71.28,41.787a.847.847,0,1,1-.847-.828A.837.837,0,0,1,71.28,41.787Z" fill="none" stroke="#999" stroke-width="0.489" fill-rule="evenodd"/>
        <path id="Fill-208" d="M71.871,42.273a.846.846,0,1,1-.845-.828.836.836,0,0,1,.845.828" fill="#e2e2e2" fill-rule="evenodd"/>
        <path id="Stroke-210" d="M71.871,42.273a.846.846,0,1,1-.845-.828A.836.836,0,0,1,71.871,42.273Z" fill="none" stroke="#999" stroke-width="0.489" fill-rule="evenodd"/>
        <path id="Fill-212" d="M72.3,42.921a.847.847,0,1,1-.847-.826.838.838,0,0,1,.847.826" fill="#e2e2e2" fill-rule="evenodd"/>
        <path id="Stroke-214" d="M72.3,42.921a.847.847,0,1,1-.847-.826A.838.838,0,0,1,72.3,42.921Z" fill="none" stroke="#999" stroke-width="0.489" fill-rule="evenodd"/>
        <path id="Fill-216" d="M72.5,43.711a.846.846,0,1,1-.847-.828.838.838,0,0,1,.847.828" fill="#e2e2e2" fill-rule="evenodd"/>
        <path id="Stroke-218" d="M72.5,43.711a.846.846,0,1,1-.847-.828A.838.838,0,0,1,72.5,43.711Z" fill="none" stroke="#999" stroke-width="0.489" fill-rule="evenodd"/>
        <path id="Fill-220" d="M72.455,44.532a.846.846,0,1,1-.845-.826.837.837,0,0,1,.845.826" fill="#e2e2e2" fill-rule="evenodd"/>
        <path id="Stroke-222" d="M72.455,44.532a.846.846,0,1,1-.845-.826A.837.837,0,0,1,72.455,44.532Z" fill="none" stroke="#999" stroke-width="0.489" fill-rule="evenodd"/>
        <path id="Fill-224" d="M72.167,45.338a.846.846,0,1,1-.847-.828.838.838,0,0,1,.847.828" fill="#e2e2e2" fill-rule="evenodd"/>
        <path id="Stroke-226" d="M72.167,45.338a.846.846,0,1,1-.847-.828A.838.838,0,0,1,72.167,45.338Z" fill="none" stroke="#999" stroke-width="0.489" fill-rule="evenodd"/>
        <path id="Fill-228" d="M71.625,45.971a.846.846,0,1,1-.846-.828.838.838,0,0,1,.846.828" fill="#e2e2e2" fill-rule="evenodd"/>
        <path id="Stroke-230" d="M71.625,45.971a.846.846,0,1,1-.846-.828A.838.838,0,0,1,71.625,45.971Z" fill="none" stroke="#999" stroke-width="0.489" fill-rule="evenodd"/>
        <path id="Fill-232" d="M70.967,46.391a.846.846,0,1,1-.847-.828.837.837,0,0,1,.847.828" fill="#e2e2e2" fill-rule="evenodd"/>
        <path id="Stroke-234" d="M70.967,46.391a.846.846,0,1,1-.847-.828A.837.837,0,0,1,70.967,46.391Z" fill="none" stroke="#999" stroke-width="0.489" fill-rule="evenodd"/>
        <path id="Fill-236" d="M70.194,46.555a.846.846,0,1,1-.845-.828.837.837,0,0,1,.845.828" fill="#e2e2e2" fill-rule="evenodd"/>
        <path id="Stroke-238" d="M70.194,46.555a.846.846,0,1,1-.845-.828A.837.837,0,0,1,70.194,46.555Z" fill="none" stroke="#999" stroke-width="0.489" fill-rule="evenodd"/>
        <path id="Fill-240" d="M69.439,46.521a.847.847,0,1,1-.847-.828.837.837,0,0,1,.847.828" fill="#e2e2e2" fill-rule="evenodd"/>
        <path id="Stroke-242" d="M69.439,46.521a.847.847,0,1,1-.847-.828A.837.837,0,0,1,69.439,46.521Z" fill="none" stroke="#999" stroke-width="0.489" fill-rule="evenodd"/>
        <path id="Fill-244" d="M68.659,46.242a.847.847,0,1,1-.847-.828.838.838,0,0,1,.847.828" fill="#e2e2e2" fill-rule="evenodd"/>
        <path id="Stroke-246" d="M68.659,46.242a.847.847,0,1,1-.847-.828A.838.838,0,0,1,68.659,46.242Z" fill="none" stroke="#999" stroke-width="0.489" fill-rule="evenodd"/>
        <path id="Fill-248" d="M68.059,45.757a.847.847,0,1,1-.847-.828.837.837,0,0,1,.847.828" fill="#e2e2e2" fill-rule="evenodd"/>
        <path id="Stroke-250" d="M68.059,45.757a.847.847,0,1,1-.847-.828A.837.837,0,0,1,68.059,45.757Z" fill="none" stroke="#999" stroke-width="0.489" fill-rule="evenodd"/>
        <path id="Fill-252" d="M67.622,45.148a.847.847,0,1,1-.847-.826.837.837,0,0,1,.847.826" fill="#e2e2e2" fill-rule="evenodd"/>
        <path id="Stroke-254" d="M67.622,45.148a.847.847,0,1,1-.847-.826A.837.837,0,0,1,67.622,45.148Z" fill="none" stroke="#999" stroke-width="0.489" fill-rule="evenodd"/>
        <path id="Fill-256" d="M67.368,44.467a.847.847,0,1,1-.847-.828.837.837,0,0,1,.847.828" fill="#e2e2e2" fill-rule="evenodd"/>
        <path id="Stroke-258" d="M67.368,44.467a.847.847,0,1,1-.847-.828A.837.837,0,0,1,67.368,44.467Z" fill="none" stroke="#999" stroke-width="0.489" fill-rule="evenodd"/>
        <path id="Fill-260" d="M67.359,43.645a.846.846,0,1,1-.847-.826.837.837,0,0,1,.847.826" fill="#e2e2e2" fill-rule="evenodd"/>
        <path id="Stroke-262" d="M67.359,43.645a.846.846,0,1,1-.847-.826A.837.837,0,0,1,67.359,43.645Z" fill="none" stroke="#999" stroke-width="0.489" fill-rule="evenodd"/>
        <path id="Fill-264" d="M67.606,42.856a.847.847,0,1,1-.847-.828.837.837,0,0,1,.847.828" fill="#e2e2e2" fill-rule="evenodd"/>
        <path id="Stroke-266" d="M67.606,42.856a.847.847,0,1,1-.847-.828A.837.837,0,0,1,67.606,42.856Z" fill="none" stroke="#999" stroke-width="0.489" fill-rule="evenodd"/>
        <path id="Fill-268" d="M68.042,42.231A.847.847,0,1,1,67.2,41.4a.837.837,0,0,1,.847.826" fill="#e2e2e2" fill-rule="evenodd"/>
        <path id="Stroke-270" d="M68.042,42.231A.847.847,0,1,1,67.2,41.4.837.837,0,0,1,68.042,42.231Z" fill="none" stroke="#999" stroke-width="0.489" fill-rule="evenodd"/>
        <path id="Stroke-272" d="M68.633,41.75a.846.846,0,1,1-.847-.828A.837.837,0,0,1,68.633,41.75Z" fill="none" stroke="#999" stroke-width="0.489" fill-rule="evenodd"/>
        <path id="Fill-274" d="M70.787,44.007a.847.847,0,1,1-.847-.828.838.838,0,0,1,.847.828" fill="#e2e2e2" fill-rule="evenodd"/>
        <path id="Stroke-276" d="M70.787,44.007a.847.847,0,1,1-.847-.828A.838.838,0,0,1,70.787,44.007Z" fill="none" stroke="#999" stroke-width="0.489" fill-rule="evenodd"/>
        <path id="Fill-278" d="M70.274,44.716a.846.846,0,1,1-.847-.828.837.837,0,0,1,.847.828" fill="#e2e2e2" fill-rule="evenodd"/>
        <path id="Stroke-280" d="M70.274,44.716a.846.846,0,1,1-.847-.828A.837.837,0,0,1,70.274,44.716Z" fill="none" stroke="#999" stroke-width="0.489" fill-rule="evenodd"/>
        <path id="Fill-282" d="M69.508,44.669a.847.847,0,1,1-.847-.826.837.837,0,0,1,.847.826" fill="#e2e2e2" fill-rule="evenodd"/>
        <path id="Stroke-284" d="M69.508,44.669a.847.847,0,1,1-.847-.826A.837.837,0,0,1,69.508,44.669Z" fill="none" stroke="#999" stroke-width="0.489" fill-rule="evenodd"/>
        <path id="Fill-286" d="M69.124,44.007a.846.846,0,1,1-.847-.828.837.837,0,0,1,.847.828" fill="#e2e2e2" fill-rule="evenodd"/>
        <path id="Stroke-288" d="M69.124,44.007a.846.846,0,1,1-.847-.828A.837.837,0,0,1,69.124,44.007Z" fill="none" stroke="#999" stroke-width="0.489" fill-rule="evenodd"/>
        <path id="Fill-290" d="M69.542,43.333a.846.846,0,1,1-.847-.828.837.837,0,0,1,.847.828" fill="#e2e2e2" fill-rule="evenodd"/>
        <path id="Stroke-292" d="M69.542,43.333a.846.846,0,1,1-.847-.828A.837.837,0,0,1,69.542,43.333Z" fill="none" stroke="#999" stroke-width="0.489" fill-rule="evenodd"/>
        <path id="Stroke-294" d="M70.274,43.229a.846.846,0,1,1-.847-.828A.837.837,0,0,1,70.274,43.229Z" fill="none" stroke="#999" stroke-width="0.489" fill-rule="evenodd"/>
        <path id="Fill-296" d="M35.848,44.04A3.452,3.452,0,1,1,32.4,40.62a3.435,3.435,0,0,1,3.451,3.42" fill="#e2e2e2" fill-rule="evenodd"/>
        <path id="Stroke-298" d="M35.848,44.04A3.452,3.452,0,1,1,32.4,40.62,3.435,3.435,0,0,1,35.848,44.04Z" fill="none" stroke="#999" stroke-width="0.523" fill-rule="evenodd"/>
        <path id="Fill-300" d="M34.128,44.04A1.731,1.731,0,1,1,32.4,42.309a1.731,1.731,0,0,1,1.731,1.731" fill="#e2e2e2" fill-rule="evenodd"/>
        <path id="Stroke-302" d="M34.128,44.04A1.731,1.731,0,1,1,32.4,42.309,1.731,1.731,0,0,1,34.128,44.04Z" fill="none" stroke="#999" stroke-width="0.523" fill-rule="evenodd"/>
        <path id="Fill-304" d="M32.68,41.534a.847.847,0,1,1-.847-.828.837.837,0,0,1,.847.828" fill="#e2e2e2" fill-rule="evenodd"/>
        <path id="Stroke-306" d="M32.68,41.534a.847.847,0,1,1-.847-.828A.837.837,0,0,1,32.68,41.534Z" fill="none" stroke="#999" stroke-width="0.489" fill-rule="evenodd"/>
        <path id="Fill-308" d="M33.834,41.541a.846.846,0,1,1-.845-.826.837.837,0,0,1,.845.826" fill="#e2e2e2" fill-rule="evenodd"/>
        <path id="Stroke-310" d="M33.834,41.541a.846.846,0,1,1-.845-.826A.837.837,0,0,1,33.834,41.541Z" fill="none" stroke="#999" stroke-width="0.489" fill-rule="evenodd"/>
        <path id="Fill-312" d="M34.591,41.82a.846.846,0,1,1-.847-.828.838.838,0,0,1,.847.828" fill="#e2e2e2" fill-rule="evenodd"/>
        <path id="Stroke-314" d="M34.591,41.82a.846.846,0,1,1-.847-.828A.838.838,0,0,1,34.591,41.82Z" fill="none" stroke="#999" stroke-width="0.489" fill-rule="evenodd"/>
        <path id="Fill-316" d="M35.183,42.3a.847.847,0,1,1-.847-.826.837.837,0,0,1,.847.826" fill="#e2e2e2" fill-rule="evenodd"/>
        <path id="Stroke-318" d="M35.183,42.3a.847.847,0,1,1-.847-.826A.837.837,0,0,1,35.183,42.3Z" fill="none" stroke="#999" stroke-width="0.489" fill-rule="evenodd"/>
        <path id="Fill-320" d="M35.61,42.954a.847.847,0,1,1-.847-.828.837.837,0,0,1,.847.828" fill="#e2e2e2" fill-rule="evenodd"/>
        <path id="Stroke-322" d="M35.61,42.954a.847.847,0,1,1-.847-.828A.837.837,0,0,1,35.61,42.954Z" fill="none" stroke="#999" stroke-width="0.489" fill-rule="evenodd"/>
        <path id="Fill-324" d="M35.815,43.744a.846.846,0,1,1-.846-.828.837.837,0,0,1,.846.828" fill="#e2e2e2" fill-rule="evenodd"/>
        <path id="Stroke-326" d="M35.815,43.744a.846.846,0,1,1-.846-.828A.837.837,0,0,1,35.815,43.744Z" fill="none" stroke="#999" stroke-width="0.489" fill-rule="evenodd"/>
        <path id="Fill-328" d="M35.766,44.565a.847.847,0,1,1-.847-.826.837.837,0,0,1,.847.826" fill="#e2e2e2" fill-rule="evenodd"/>
        <path id="Stroke-330" d="M35.766,44.565a.847.847,0,1,1-.847-.826A.837.837,0,0,1,35.766,44.565Z" fill="none" stroke="#999" stroke-width="0.489" fill-rule="evenodd"/>
        <path id="Fill-332" d="M35.478,45.371a.846.846,0,1,1-.846-.828.837.837,0,0,1,.846.828" fill="#e2e2e2" fill-rule="evenodd"/>
        <path id="Stroke-334" d="M35.478,45.371a.846.846,0,1,1-.846-.828A.837.837,0,0,1,35.478,45.371Z" fill="none" stroke="#999" stroke-width="0.489" fill-rule="evenodd"/>
        <path id="Fill-336" d="M34.937,46a.847.847,0,1,1-.847-.828.837.837,0,0,1,.847.828" fill="#e2e2e2" fill-rule="evenodd"/>
        <path id="Stroke-338" d="M34.937,46a.847.847,0,1,1-.847-.828A.837.837,0,0,1,34.937,46Z" fill="none" stroke="#999" stroke-width="0.489" fill-rule="evenodd"/>
        <path id="Fill-340" d="M34.279,46.422a.847.847,0,1,1-.847-.826.838.838,0,0,1,.847.826" fill="#e2e2e2" fill-rule="evenodd"/>
        <path id="Stroke-342" d="M34.279,46.422a.847.847,0,1,1-.847-.826A.838.838,0,0,1,34.279,46.422Z" fill="none" stroke="#999" stroke-width="0.489" fill-rule="evenodd"/>
        <path id="Fill-344" d="M33.506,46.588a.847.847,0,1,1-.847-.828.837.837,0,0,1,.847.828" fill="#e2e2e2" fill-rule="evenodd"/>
        <path id="Stroke-346" d="M33.506,46.588a.847.847,0,1,1-.847-.828A.837.837,0,0,1,33.506,46.588Z" fill="none" stroke="#999" stroke-width="0.489" fill-rule="evenodd"/>
        <path id="Fill-348" d="M32.75,46.555a.846.846,0,1,1-.847-.828.838.838,0,0,1,.847.828" fill="#e2e2e2" fill-rule="evenodd"/>
        <path id="Stroke-350" d="M32.75,46.555a.846.846,0,1,1-.847-.828A.838.838,0,0,1,32.75,46.555Z" fill="none" stroke="#999" stroke-width="0.489" fill-rule="evenodd"/>
        <path id="Fill-352" d="M31.969,46.275a.847.847,0,1,1-.847-.828.838.838,0,0,1,.847.828" fill="#e2e2e2" fill-rule="evenodd"/>
        <path id="Stroke-354" d="M31.969,46.275a.847.847,0,1,1-.847-.828A.838.838,0,0,1,31.969,46.275Z" fill="none" stroke="#999" stroke-width="0.489" fill-rule="evenodd"/>
        <path id="Fill-356" d="M31.369,45.791a.847.847,0,1,1-.847-.828.836.836,0,0,1,.847.828" fill="#e2e2e2" fill-rule="evenodd"/>
        <path id="Stroke-358" d="M31.369,45.791a.847.847,0,1,1-.847-.828A.836.836,0,0,1,31.369,45.791Z" fill="none" stroke="#999" stroke-width="0.489" fill-rule="evenodd"/>
        <path id="Fill-360" d="M30.933,45.181a.846.846,0,1,1-.845-.828.837.837,0,0,1,.845.828" fill="#e2e2e2" fill-rule="evenodd"/>
        <path id="Stroke-362" d="M30.933,45.181a.846.846,0,1,1-.845-.828A.837.837,0,0,1,30.933,45.181Z" fill="none" stroke="#999" stroke-width="0.489" fill-rule="evenodd"/>
        <path id="Fill-364" d="M30.679,44.5a.847.847,0,1,1-.847-.828.837.837,0,0,1,.847.828" fill="#e2e2e2" fill-rule="evenodd"/>
        <path id="Stroke-366" d="M30.679,44.5a.847.847,0,1,1-.847-.828A.837.837,0,0,1,30.679,44.5Z" fill="none" stroke="#999" stroke-width="0.489" fill-rule="evenodd"/>
        <path id="Fill-368" d="M30.67,43.678a.846.846,0,1,1-.845-.828.837.837,0,0,1,.845.828" fill="#e2e2e2" fill-rule="evenodd"/>
        <path id="Stroke-370" d="M30.67,43.678a.846.846,0,1,1-.845-.828A.837.837,0,0,1,30.67,43.678Z" fill="none" stroke="#999" stroke-width="0.489" fill-rule="evenodd"/>
        <path id="Fill-372" d="M30.917,42.888a.846.846,0,1,1-.846-.826.837.837,0,0,1,.846.826" fill="#e2e2e2" fill-rule="evenodd"/>
        <path id="Stroke-374" d="M30.917,42.888a.846.846,0,1,1-.846-.826A.837.837,0,0,1,30.917,42.888Z" fill="none" stroke="#999" stroke-width="0.489" fill-rule="evenodd"/>
        <path id="Fill-376" d="M31.353,42.264a.847.847,0,1,1-.847-.828.837.837,0,0,1,.847.828" fill="#e2e2e2" fill-rule="evenodd"/>
        <path id="Stroke-378" d="M31.353,42.264a.847.847,0,1,1-.847-.828A.837.837,0,0,1,31.353,42.264Z" fill="none" stroke="#999" stroke-width="0.489" fill-rule="evenodd"/>
        <path id="Stroke-380" d="M31.944,41.782a.846.846,0,1,1-.845-.826A.836.836,0,0,1,31.944,41.782Z" fill="none" stroke="#999" stroke-width="0.489" fill-rule="evenodd"/>
        <path id="Fill-382" d="M34.1,44.04a.847.847,0,1,1-.847-.828.837.837,0,0,1,.847.828" fill="#e2e2e2" fill-rule="evenodd"/>
        <path id="Stroke-384" d="M34.1,44.04a.847.847,0,1,1-.847-.828A.837.837,0,0,1,34.1,44.04Z" fill="none" stroke="#999" stroke-width="0.489" fill-rule="evenodd"/>
        <path id="Fill-386" d="M33.586,44.749a.847.847,0,1,1-.847-.828.838.838,0,0,1,.847.828" fill="#e2e2e2" fill-rule="evenodd"/>
        <path id="Stroke-388" d="M33.586,44.749a.847.847,0,1,1-.847-.828A.838.838,0,0,1,33.586,44.749Z" fill="none" stroke="#999" stroke-width="0.489" fill-rule="evenodd"/>
        <path id="Fill-390" d="M32.818,44.7a.846.846,0,1,1-.847-.828.837.837,0,0,1,.847.828" fill="#e2e2e2" fill-rule="evenodd"/>
        <path id="Stroke-392" d="M32.818,44.7a.846.846,0,1,1-.847-.828A.837.837,0,0,1,32.818,44.7Z" fill="none" stroke="#999" stroke-width="0.489" fill-rule="evenodd"/>
        <path id="Fill-394" d="M32.435,44.04a.846.846,0,1,1-.846-.828.837.837,0,0,1,.846.828" fill="#e2e2e2" fill-rule="evenodd"/>
        <path id="Stroke-396" d="M32.435,44.04a.846.846,0,1,1-.846-.828A.837.837,0,0,1,32.435,44.04Z" fill="none" stroke="#999" stroke-width="0.489" fill-rule="evenodd"/>
        <path id="Fill-398" d="M32.854,43.366a.847.847,0,1,1-.847-.828.838.838,0,0,1,.847.828" fill="#e2e2e2" fill-rule="evenodd"/>
        <path id="Stroke-400" d="M32.854,43.366a.847.847,0,1,1-.847-.828A.838.838,0,0,1,32.854,43.366Z" fill="none" stroke="#999" stroke-width="0.489" fill-rule="evenodd"/>
        <path id="Stroke-402" d="M33.586,43.261a.847.847,0,1,1-.847-.826A.838.838,0,0,1,33.586,43.261Z" fill="none" stroke="#999" stroke-width="0.489" fill-rule="evenodd"/>
        <path id="Fill-404" d="M54.322,44.158a3.452,3.452,0,1,1-3.451-3.419,3.437,3.437,0,0,1,3.451,3.419" fill="#e2e2e2" fill-rule="evenodd"/>
        <path id="Stroke-406" d="M54.322,44.158a3.452,3.452,0,1,1-3.451-3.419A3.437,3.437,0,0,1,54.322,44.158Z" fill="none" stroke="#999" stroke-width="0.523" fill-rule="evenodd"/>
        <path id="Fill-408" d="M52.6,44.158a1.732,1.732,0,1,1-1.731-1.732A1.732,1.732,0,0,1,52.6,44.158" fill="#e2e2e2" fill-rule="evenodd"/>
        <path id="Stroke-410" d="M52.6,44.158a1.732,1.732,0,1,1-1.731-1.732A1.732,1.732,0,0,1,52.6,44.158Z" fill="none" stroke="#999" stroke-width="0.523" fill-rule="evenodd"/>
        <path id="Fill-412" d="M51.154,41.652a.847.847,0,1,1-.847-.828.837.837,0,0,1,.847.828" fill="#e2e2e2" fill-rule="evenodd"/>
        <path id="Stroke-414" d="M51.154,41.652a.847.847,0,1,1-.847-.828A.837.837,0,0,1,51.154,41.652Z" fill="none" stroke="#999" stroke-width="0.489" fill-rule="evenodd"/>
        <path id="Fill-416" d="M52.308,41.66a.846.846,0,1,1-.847-.828.837.837,0,0,1,.847.828" fill="#e2e2e2" fill-rule="evenodd"/>
        <path id="Stroke-418" d="M52.308,41.66a.846.846,0,1,1-.847-.828A.837.837,0,0,1,52.308,41.66Z" fill="none" stroke="#999" stroke-width="0.489" fill-rule="evenodd"/>
        <path id="Fill-420" d="M53.065,41.94a.847.847,0,1,1-.847-.828.836.836,0,0,1,.847.828" fill="#e2e2e2" fill-rule="evenodd"/>
        <path id="Stroke-422" d="M53.065,41.94a.847.847,0,1,1-.847-.828A.836.836,0,0,1,53.065,41.94Z" fill="none" stroke="#999" stroke-width="0.489" fill-rule="evenodd"/>
        <path id="Fill-424" d="M53.656,42.424a.846.846,0,1,1-.846-.828.837.837,0,0,1,.846.828" fill="#e2e2e2" fill-rule="evenodd"/>
        <path id="Stroke-426" d="M53.656,42.424a.846.846,0,1,1-.846-.828A.837.837,0,0,1,53.656,42.424Z" fill="none" stroke="#999" stroke-width="0.489" fill-rule="evenodd"/>
        <path id="Fill-428" d="M54.083,43.074a.846.846,0,1,1-.846-.828.836.836,0,0,1,.846.828" fill="#e2e2e2" fill-rule="evenodd"/>
        <path id="Stroke-430" d="M54.083,43.074a.846.846,0,1,1-.846-.828A.836.836,0,0,1,54.083,43.074Z" fill="none" stroke="#999" stroke-width="0.489" fill-rule="evenodd"/>
        <path id="Fill-432" d="M54.289,43.862a.846.846,0,1,1-.847-.827.837.837,0,0,1,.847.827" fill="#e2e2e2" fill-rule="evenodd"/>
        <path id="Stroke-434" d="M54.289,43.862a.846.846,0,1,1-.847-.827A.837.837,0,0,1,54.289,43.862Z" fill="none" stroke="#999" stroke-width="0.489" fill-rule="evenodd"/>
        <path id="Fill-436" d="M54.24,44.685a.846.846,0,1,1-.846-.828.837.837,0,0,1,.846.828" fill="#e2e2e2" fill-rule="evenodd"/>
        <path id="Stroke-438" d="M54.24,44.685a.846.846,0,1,1-.846-.828A.837.837,0,0,1,54.24,44.685Z" fill="none" stroke="#999" stroke-width="0.489" fill-rule="evenodd"/>
        <path id="Fill-440" d="M53.952,45.489a.846.846,0,1,1-.847-.827.837.837,0,0,1,.847.827" fill="#e2e2e2" fill-rule="evenodd"/>
        <path id="Stroke-442" d="M53.952,45.489a.846.846,0,1,1-.847-.827A.837.837,0,0,1,53.952,45.489Z" fill="none" stroke="#999" stroke-width="0.489" fill-rule="evenodd"/>
        <path id="Fill-444" d="M53.41,46.122a.846.846,0,1,1-.846-.826.837.837,0,0,1,.846.826" fill="#e2e2e2" fill-rule="evenodd"/>
        <path id="Stroke-446" d="M53.41,46.122a.846.846,0,1,1-.846-.826A.837.837,0,0,1,53.41,46.122Z" fill="none" stroke="#999" stroke-width="0.489" fill-rule="evenodd"/>
        <path id="Fill-448" d="M52.752,46.542a.846.846,0,1,1-.847-.828.838.838,0,0,1,.847.828" fill="#e2e2e2" fill-rule="evenodd"/>
        <path id="Stroke-450" d="M52.752,46.542a.846.846,0,1,1-.847-.828A.838.838,0,0,1,52.752,46.542Z" fill="none" stroke="#999" stroke-width="0.489" fill-rule="evenodd"/>
        <path id="Fill-452" d="M51.979,46.706a.846.846,0,1,1-.846-.826.837.837,0,0,1,.846.826" fill="#e2e2e2" fill-rule="evenodd"/>
        <path id="Stroke-454" d="M51.979,46.706a.846.846,0,1,1-.846-.826A.837.837,0,0,1,51.979,46.706Z" fill="none" stroke="#999" stroke-width="0.489" fill-rule="evenodd"/>
        <path id="Fill-456" d="M51.224,46.673a.847.847,0,1,1-.847-.826.837.837,0,0,1,.847.826" fill="#e2e2e2" fill-rule="evenodd"/>
        <path id="Stroke-458" d="M51.224,46.673a.847.847,0,1,1-.847-.826A.837.837,0,0,1,51.224,46.673Z" fill="none" stroke="#999" stroke-width="0.489" fill-rule="evenodd"/>
        <path id="Fill-460" d="M50.442,46.394a.846.846,0,1,1-.845-.828.836.836,0,0,1,.845.828" fill="#e2e2e2" fill-rule="evenodd"/>
        <path id="Stroke-462" d="M50.442,46.394a.846.846,0,1,1-.845-.828A.836.836,0,0,1,50.442,46.394Z" fill="none" stroke="#999" stroke-width="0.489" fill-rule="evenodd"/>
        <path id="Fill-464" d="M49.843,45.909A.847.847,0,1,1,49,45.081a.838.838,0,0,1,.846.828" fill="#e2e2e2" fill-rule="evenodd"/>
        <path id="Stroke-466" d="M49.843,45.909A.847.847,0,1,1,49,45.081.838.838,0,0,1,49.843,45.909Z" fill="none" stroke="#999" stroke-width="0.489" fill-rule="evenodd"/>
        <path id="Fill-468" d="M49.407,45.3a.847.847,0,1,1-.847-.828.836.836,0,0,1,.847.828" fill="#e2e2e2" fill-rule="evenodd"/>
        <path id="Stroke-470" d="M49.407,45.3a.847.847,0,1,1-.847-.828A.836.836,0,0,1,49.407,45.3Z" fill="none" stroke="#999" stroke-width="0.489" fill-rule="evenodd"/>
        <path id="Fill-472" d="M49.152,44.618a.846.846,0,1,1-.845-.828.836.836,0,0,1,.845.828" fill="#e2e2e2" fill-rule="evenodd"/>
        <path id="Stroke-474" d="M49.152,44.618a.846.846,0,1,1-.845-.828A.836.836,0,0,1,49.152,44.618Z" fill="none" stroke="#999" stroke-width="0.489" fill-rule="evenodd"/>
        <path id="Fill-476" d="M49.144,43.8a.847.847,0,1,1-.847-.828.836.836,0,0,1,.847.828" fill="#e2e2e2" fill-rule="evenodd"/>
        <path id="Stroke-478" d="M49.144,43.8a.847.847,0,1,1-.847-.828A.836.836,0,0,1,49.144,43.8Z" fill="none" stroke="#999" stroke-width="0.489" fill-rule="evenodd"/>
        <path id="Fill-480" d="M49.391,43.008a.847.847,0,1,1-.847-.828.837.837,0,0,1,.847.828" fill="#e2e2e2" fill-rule="evenodd"/>
        <path id="Stroke-482" d="M49.391,43.008a.847.847,0,1,1-.847-.828A.837.837,0,0,1,49.391,43.008Z" fill="none" stroke="#999" stroke-width="0.489" fill-rule="evenodd"/>
        <path id="Fill-484" d="M49.827,42.383a.847.847,0,1,1-.847-.828.837.837,0,0,1,.847.828" fill="#e2e2e2" fill-rule="evenodd"/>
        <path id="Stroke-486" d="M49.827,42.383a.847.847,0,1,1-.847-.828A.837.837,0,0,1,49.827,42.383Z" fill="none" stroke="#999" stroke-width="0.489" fill-rule="evenodd"/>
        <path id="Stroke-488" d="M50.418,41.9a.846.846,0,1,1-.847-.828A.838.838,0,0,1,50.418,41.9Z" fill="none" stroke="#999" stroke-width="0.489" fill-rule="evenodd"/>
        <path id="Fill-490" d="M52.57,44.159a.846.846,0,1,1-.846-.828.836.836,0,0,1,.846.828" fill="#e2e2e2" fill-rule="evenodd"/>
        <path id="Stroke-492" d="M52.57,44.159a.846.846,0,1,1-.846-.828A.836.836,0,0,1,52.57,44.159Z" fill="none" stroke="#999" stroke-width="0.489" fill-rule="evenodd"/>
        <path id="Fill-494" d="M52.059,44.867a.846.846,0,1,1-.847-.826.837.837,0,0,1,.847.826" fill="#e2e2e2" fill-rule="evenodd"/>
        <path id="Stroke-496" d="M52.059,44.867a.846.846,0,1,1-.847-.826A.837.837,0,0,1,52.059,44.867Z" fill="none" stroke="#999" stroke-width="0.489" fill-rule="evenodd"/>
        <path id="Fill-498" d="M51.293,44.822a.847.847,0,1,1-.847-.828.837.837,0,0,1,.847.828" fill="#e2e2e2" fill-rule="evenodd"/>
        <path id="Stroke-500" d="M51.293,44.822a.847.847,0,1,1-.847-.828A.837.837,0,0,1,51.293,44.822Z" fill="none" stroke="#999" stroke-width="0.489" fill-rule="evenodd"/>
        <path id="Fill-502" d="M50.909,44.159a.846.846,0,1,1-.847-.828.837.837,0,0,1,.847.828" fill="#e2e2e2" fill-rule="evenodd"/>
        <path id="Stroke-504" d="M50.909,44.159a.846.846,0,1,1-.847-.828A.837.837,0,0,1,50.909,44.159Z" fill="none" stroke="#999" stroke-width="0.489" fill-rule="evenodd"/>
        <path id="Fill-506" d="M51.327,43.484a.846.846,0,1,1-.847-.826.837.837,0,0,1,.847.826" fill="#e2e2e2" fill-rule="evenodd"/>
        <path id="Stroke-508" d="M51.327,43.484a.846.846,0,1,1-.847-.826A.837.837,0,0,1,51.327,43.484Z" fill="none" stroke="#999" stroke-width="0.489" fill-rule="evenodd"/>
        <path id="Stroke-510" d="M52.059,43.38a.846.846,0,1,1-.847-.828A.838.838,0,0,1,52.059,43.38Z" fill="none" stroke="#999" stroke-width="0.489" fill-rule="evenodd"/>
        <path id="Fill-512" d="M90.642,44.07a3.452,3.452,0,1,1-3.453-3.418,3.436,3.436,0,0,1,3.453,3.418" fill="#e2e2e2" fill-rule="evenodd"/>
        <path id="Stroke-514" d="M90.642,44.07a3.452,3.452,0,1,1-3.453-3.418A3.436,3.436,0,0,1,90.642,44.07Z" fill="none" stroke="#999" stroke-width="0.523" fill-rule="evenodd"/>
        <path id="Fill-516" d="M88.921,44.07a1.731,1.731,0,1,1-1.731-1.73,1.731,1.731,0,0,1,1.731,1.73" fill="#e2e2e2" fill-rule="evenodd"/>
        <path id="Stroke-518" d="M88.921,44.07a1.731,1.731,0,1,1-1.731-1.73A1.731,1.731,0,0,1,88.921,44.07Z" fill="none" stroke="#999" stroke-width="0.523" fill-rule="evenodd"/>
        <path id="Fill-520" d="M87.473,41.565a.846.846,0,1,1-.847-.826.837.837,0,0,1,.847.826" fill="#e2e2e2" fill-rule="evenodd"/>
        <path id="Stroke-522" d="M87.473,41.565a.846.846,0,1,1-.847-.826A.837.837,0,0,1,87.473,41.565Z" fill="none" stroke="#999" stroke-width="0.489" fill-rule="evenodd"/>
        <path id="Fill-524" d="M88.628,41.572a.847.847,0,1,1-.847-.828.838.838,0,0,1,.847.828" fill="#e2e2e2" fill-rule="evenodd"/>
        <path id="Stroke-526" d="M88.628,41.572a.847.847,0,1,1-.847-.828A.838.838,0,0,1,88.628,41.572Z" fill="none" stroke="#999" stroke-width="0.489" fill-rule="evenodd"/>
        <path id="Fill-528" d="M89.383,41.852a.846.846,0,1,1-.846-.828.837.837,0,0,1,.846.828" fill="#e2e2e2" fill-rule="evenodd"/>
        <path id="Stroke-530" d="M89.383,41.852a.846.846,0,1,1-.846-.828A.837.837,0,0,1,89.383,41.852Z" fill="none" stroke="#999" stroke-width="0.489" fill-rule="evenodd"/>
        <path id="Fill-532" d="M89.976,42.336a.847.847,0,1,1-.847-.826.837.837,0,0,1,.847.826" fill="#e2e2e2" fill-rule="evenodd"/>
        <path id="Stroke-534" d="M89.976,42.336a.847.847,0,1,1-.847-.826A.837.837,0,0,1,89.976,42.336Z" fill="none" stroke="#999" stroke-width="0.489" fill-rule="evenodd"/>
        <path id="Fill-536" d="M90.4,42.986a.846.846,0,1,1-.847-.828.838.838,0,0,1,.847.828" fill="#e2e2e2" fill-rule="evenodd"/>
        <path id="Stroke-538" d="M90.4,42.986a.846.846,0,1,1-.847-.828A.838.838,0,0,1,90.4,42.986Z" fill="none" stroke="#999" stroke-width="0.489" fill-rule="evenodd"/>
        <path id="Fill-540" d="M90.609,43.776a.847.847,0,1,1-.847-.828.837.837,0,0,1,.847.828" fill="#e2e2e2" fill-rule="evenodd"/>
        <path id="Stroke-542" d="M90.609,43.776a.847.847,0,1,1-.847-.828A.837.837,0,0,1,90.609,43.776Z" fill="none" stroke="#999" stroke-width="0.489" fill-rule="evenodd"/>
        <path id="Fill-544" d="M90.559,44.6a.847.847,0,1,1-.847-.828.837.837,0,0,1,.847.828" fill="#e2e2e2" fill-rule="evenodd"/>
        <path id="Stroke-546" d="M90.559,44.6a.847.847,0,1,1-.847-.828A.837.837,0,0,1,90.559,44.6Z" fill="none" stroke="#999" stroke-width="0.489" fill-rule="evenodd"/>
        <path id="Fill-548" d="M90.272,45.4a.847.847,0,1,1-.847-.828.837.837,0,0,1,.847.828" fill="#e2e2e2" fill-rule="evenodd"/>
        <path id="Stroke-550" d="M90.272,45.4a.847.847,0,1,1-.847-.828A.837.837,0,0,1,90.272,45.4Z" fill="none" stroke="#999" stroke-width="0.489" fill-rule="evenodd"/>
        <path id="Fill-552" d="M89.729,46.036a.847.847,0,1,1-.847-.828.837.837,0,0,1,.847.828" fill="#e2e2e2" fill-rule="evenodd"/>
        <path id="Stroke-554" d="M89.729,46.036a.847.847,0,1,1-.847-.828A.837.837,0,0,1,89.729,46.036Z" fill="none" stroke="#999" stroke-width="0.489" fill-rule="evenodd"/>
        <path id="Fill-556" d="M89.072,46.454a.847.847,0,1,1-.847-.826.837.837,0,0,1,.847.826" fill="#e2e2e2" fill-rule="evenodd"/>
        <path id="Stroke-558" d="M89.072,46.454a.847.847,0,1,1-.847-.826A.837.837,0,0,1,89.072,46.454Z" fill="none" stroke="#999" stroke-width="0.489" fill-rule="evenodd"/>
        <path id="Fill-560" d="M88.3,46.619a.847.847,0,1,1-.847-.828.837.837,0,0,1,.847.828" fill="#e2e2e2" fill-rule="evenodd"/>
        <path id="Stroke-562" d="M88.3,46.619a.847.847,0,1,1-.847-.828A.837.837,0,0,1,88.3,46.619Z" fill="none" stroke="#999" stroke-width="0.489" fill-rule="evenodd"/>
        <path id="Fill-564" d="M87.542,46.586a.846.846,0,1,1-.847-.828.837.837,0,0,1,.847.828" fill="#e2e2e2" fill-rule="evenodd"/>
        <path id="Stroke-566" d="M87.542,46.586a.846.846,0,1,1-.847-.828A.837.837,0,0,1,87.542,46.586Z" fill="none" stroke="#999" stroke-width="0.489" fill-rule="evenodd"/>
        <path id="Fill-568" d="M86.762,46.307a.846.846,0,1,1-.847-.828.838.838,0,0,1,.847.828" fill="#e2e2e2" fill-rule="evenodd"/>
        <path id="Stroke-570" d="M86.762,46.307a.846.846,0,1,1-.847-.828A.838.838,0,0,1,86.762,46.307Z" fill="none" stroke="#999" stroke-width="0.489" fill-rule="evenodd"/>
        <path id="Fill-572" d="M86.162,45.821a.846.846,0,1,1-.847-.826.837.837,0,0,1,.847.826" fill="#e2e2e2" fill-rule="evenodd"/>
        <path id="Stroke-574" d="M86.162,45.821a.846.846,0,1,1-.847-.826A.837.837,0,0,1,86.162,45.821Z" fill="none" stroke="#999" stroke-width="0.489" fill-rule="evenodd"/>
        <path id="Fill-576" d="M85.726,45.213a.846.846,0,1,1-.845-.828.837.837,0,0,1,.845.828" fill="#e2e2e2" fill-rule="evenodd"/>
        <path id="Stroke-578" d="M85.726,45.213a.846.846,0,1,1-.845-.828A.837.837,0,0,1,85.726,45.213Z" fill="none" stroke="#999" stroke-width="0.489" fill-rule="evenodd"/>
        <path id="Fill-580" d="M85.471,44.531a.846.846,0,1,1-.847-.826.837.837,0,0,1,.847.826" fill="#e2e2e2" fill-rule="evenodd"/>
        <path id="Stroke-582" d="M85.471,44.531a.846.846,0,1,1-.847-.826A.837.837,0,0,1,85.471,44.531Z" fill="none" stroke="#999" stroke-width="0.489" fill-rule="evenodd"/>
        <path id="Fill-584" d="M85.464,43.709a.847.847,0,1,1-.847-.828.838.838,0,0,1,.847.828" fill="#e2e2e2" fill-rule="evenodd"/>
        <path id="Stroke-586" d="M85.464,43.709a.847.847,0,1,1-.847-.828A.838.838,0,0,1,85.464,43.709Z" fill="none" stroke="#999" stroke-width="0.489" fill-rule="evenodd"/>
        <path id="Fill-588" d="M85.711,42.92a.847.847,0,1,1-.847-.826.838.838,0,0,1,.847.826" fill="#e2e2e2" fill-rule="evenodd"/>
        <path id="Stroke-590" d="M85.711,42.92a.847.847,0,1,1-.847-.826A.838.838,0,0,1,85.711,42.92Z" fill="none" stroke="#999" stroke-width="0.489" fill-rule="evenodd"/>
        <path id="Fill-592" d="M86.145,42.3a.846.846,0,1,1-.847-.828.838.838,0,0,1,.847.828" fill="#e2e2e2" fill-rule="evenodd"/>
        <path id="Stroke-594" d="M86.145,42.3a.846.846,0,1,1-.847-.828A.838.838,0,0,1,86.145,42.3Z" fill="none" stroke="#999" stroke-width="0.489" fill-rule="evenodd"/>
        <path id="Stroke-596" d="M86.738,41.814a.847.847,0,1,1-.847-.827A.837.837,0,0,1,86.738,41.814Z" fill="none" stroke="#999" stroke-width="0.489" fill-rule="evenodd"/>
        <path id="Fill-598" d="M88.89,44.072a.846.846,0,1,1-.847-.828.838.838,0,0,1,.847.828" fill="#e2e2e2" fill-rule="evenodd"/>
        <path id="Stroke-600" d="M88.89,44.072a.846.846,0,1,1-.847-.828A.838.838,0,0,1,88.89,44.072Z" fill="none" stroke="#999" stroke-width="0.489" fill-rule="evenodd"/>
        <path id="Fill-602" d="M88.379,44.781a.847.847,0,1,1-.847-.828.837.837,0,0,1,.847.828" fill="#e2e2e2" fill-rule="evenodd"/>
        <path id="Stroke-604" d="M88.379,44.781a.847.847,0,1,1-.847-.828A.837.837,0,0,1,88.379,44.781Z" fill="none" stroke="#999" stroke-width="0.489" fill-rule="evenodd"/>
        <path id="Fill-606" d="M87.611,44.734a.846.846,0,1,1-.846-.828.838.838,0,0,1,.846.828" fill="#e2e2e2" fill-rule="evenodd"/>
        <path id="Stroke-608" d="M87.611,44.734a.846.846,0,1,1-.846-.828A.838.838,0,0,1,87.611,44.734Z" fill="none" stroke="#999" stroke-width="0.489" fill-rule="evenodd"/>
        <path id="Fill-610" d="M87.228,44.072a.847.847,0,1,1-.847-.828.838.838,0,0,1,.847.828" fill="#e2e2e2" fill-rule="evenodd"/>
        <path id="Stroke-612" d="M87.228,44.072a.847.847,0,1,1-.847-.828A.838.838,0,0,1,87.228,44.072Z" fill="none" stroke="#999" stroke-width="0.489" fill-rule="evenodd"/>
        <path id="Fill-614" d="M87.647,43.4a.847.847,0,1,1-.847-.828.837.837,0,0,1,.847.828" fill="#e2e2e2" fill-rule="evenodd"/>
        <path id="Stroke-616" d="M87.647,43.4a.847.847,0,1,1-.847-.828A.837.837,0,0,1,87.647,43.4Z" fill="none" stroke="#999" stroke-width="0.489" fill-rule="evenodd"/>
        <path id="Stroke-618" d="M88.379,43.292a.847.847,0,1,1-.847-.827A.837.837,0,0,1,88.379,43.292Z" fill="none" stroke="#999" stroke-width="0.489" fill-rule="evenodd"/>
      </g>
    </g>
  </g>
</svg>
