<svg xmlns="http://www.w3.org/2000/svg" width="86.722" height="58.919" viewBox="0 0 86.722 58.919">
  <g id="Group_9" data-name="Group 9" transform="translate(-1815.367 -1003.215)">
    <path id="Polygon_1" data-name="Polygon 1" d="M29.459,0,58.919,47.871H0Z" transform="translate(1902.089 1003.215) rotate(90)" fill="#558bc8"/>
    <g id="hito" transform="translate(1854.25 1012.651) rotate(90)">
      <path id="Path_33" data-name="Path 33" d="M21.532,0V3.034q0,10.991,4.428,18.633,4.45,7.732,14.182,12.9l-2.719,3.394A40.372,40.372,0,0,1,23.015,23.15,32.11,32.11,0,0,1,20.026,14.9,32.6,32.6,0,0,1,2.72,38.883L0,35.848q10.181-4.765,14.362-13.485,3.461-7.1,3.461-19.15V0Z" fill="#558bc8"/>
    </g>
  </g>
</svg>
