<svg xmlns="http://www.w3.org/2000/svg" width="82" height="56.177" viewBox="0 0 82 56.177">
  <g id="Group_8" data-name="Group 8" transform="translate(-2 -989.823)">
    <path id="Polygon_2" data-name="Polygon 2" d="M28.088,0,56.177,45.643H0Z" transform="translate(2 1046) rotate(-90)" fill="#7e4399"/>
    <g id="hito" transform="translate(46.927 1037.591) rotate(-90)">
      <path id="Path_33" data-name="Path 33" d="M20.53,0V2.893q0,10.479,4.222,17.765,4.243,7.372,13.522,12.3L35.68,36.194A38.493,38.493,0,0,1,21.944,22.073a30.615,30.615,0,0,1-2.85-7.865,31.085,31.085,0,0,1-16.5,22.865L0,34.18q9.708-4.543,13.694-12.857,3.3-6.772,3.3-18.258V0Z" transform="translate(0 0)" fill="#7e4399"/>
    </g>
  </g>
</svg>
