<svg xmlns="http://www.w3.org/2000/svg" xmlns:xlink="http://www.w3.org/1999/xlink" width="1076.366" height="316.587" viewBox="0 0 1076.366 316.587">
  <defs>
    <linearGradient id="linear-gradient" x1="0.256" x2="0.975" y2="1" gradientUnits="objectBoundingBox">
      <stop offset="0" stop-color="#9c43c5"/>
      <stop offset="1" stop-color="#4e2263"/>
    </linearGradient>
    <linearGradient id="linear-gradient-2" x1="0.287" x2="1" y2="0.964" gradientUnits="objectBoundingBox">
      <stop offset="0" stop-color="#7e4399"/>
      <stop offset="1" stop-color="#3f224d"/>
    </linearGradient>
    <linearGradient id="linear-gradient-3" x1="0.713" y1="0.015" x2="0.029" y2="0.97" xlink:href="#linear-gradient-2"/>
    <linearGradient id="linear-gradient-4" x1="0.024" y1="0.5" x2="1" y2="0.5" gradientUnits="objectBoundingBox">
      <stop offset="0" stop-color="#7e4399"/>
      <stop offset="1" stop-color="#558bc8"/>
    </linearGradient>
  </defs>
  <g id="Group_17" data-name="Group 17" transform="translate(-416 -239.107)">
    <path id="Path_90" data-name="Path 90" d="M1180.8,2915.037l59.392-194.43,168.8,40.011-6.221,207.87Z" transform="translate(-448 -2420)" fill="#fff"/>
    <path id="Path_92" data-name="Path 92" d="M1408.989,2915.037l-59.392-194.43-168.8,40.011,6.221,207.87Z" transform="translate(-227 -2419)" fill="#fff"/>
    <g id="Group_14" data-name="Group 14" transform="translate(-133 -654.313)">
      <path id="Path_15" data-name="Path 15" d="M119.134,244.515l-224.711-54.787Z" transform="translate(964.91 965.491)" fill="url(#linear-gradient)"/>
      <g id="book" transform="translate(859 952.108)">
        <g id="vector-open-book" transform="translate(0 0)">
          <path id="Path_14" data-name="Path 14" d="M276.3-384.9c-.4-.042-.916,44.8-.916,44.8s.135,155.13-2.575,155.6c-1.89.337-12.215,1.207-14.037,1.477a33.644,33.644,0,0,0-6.209,1.485c-.742.4-2.227.067-4.926-1.282-14.78-7.22-83.278-24.227-170.874-42.38-23.89-4.994-22.945-4.724-22.945-5.871,0-1.08.472-2.7,9.448-32.258,8.3-27.332,24.97-82.2,37.117-122.149,8.436-27.737,10.663-34.35,12.552-37.117.994-1.453,149.206,35.085,162.983,37.746.458.089.437.039.436,0,.022-.764-163.168-42.024-166.389-42.065a9.7,9.7,0,0,0-7.693,3.1c-.877.945-32.6,101.161-58.645,185.18C42.215-233.9,41-228.973,41-227.556c0,3.712,2.092,6.209,6.276,7.423,4.252,1.215,21.965,6,22.365,6.624.55.811,176.784,39.941,176.177,38.929-.2-.337,1.417.27,3.577,1.35,5.871,2.969,12.485,4.117,23.417,4.117h2.51s-1.417-19.857-1.246-47.415C274.47-280.357,276.894-385.44,276.3-384.9Z" transform="translate(-41 426.925)" fill="url(#linear-gradient-2)"/>
        </g>
        <g id="vector-open-book-2" data-name="vector-open-book" transform="translate(229.552 0)">
          <path id="Path_14-2" data-name="Path 14" d="M45.883-384.853c.2.2-3.719,199.685.2,200.36,1.89.337,12.215,1.207,14.037,1.477a33.644,33.644,0,0,1,6.209,1.485c.742.4,2.227.067,4.926-1.282,14.779-7.221,83.277-24.227,170.873-42.381,23.89-4.994,22.945-4.724,22.945-5.871,0-1.08-.472-2.7-9.448-32.258-8.3-27.332-24.97-82.2-37.117-122.149-8.436-27.737-10.663-34.35-12.552-37.117-.989-1.446-160.068,37.828-160.068,37.828v-.093c-.022-.764,159.817-42.014,163.037-42.054a9.7,9.7,0,0,1,7.693,3.1c.877.945,32.6,101.161,58.645,185.18,1.417,4.724,2.632,9.65,2.632,11.068,0,3.712-2.092,6.209-6.276,7.423-4.252,1.215-21.965,6-22.365,6.624-.55.811-176.785,39.941-176.177,38.929.2-.337-1.417.27-3.577,1.35-5.871,2.969-12.485,4.117-23.417,4.117-.3,0-1.253.128-1.663-.319C34.413-179.986,45.028-385.642,45.883-384.853Z" transform="translate(-40.15 426.925)" fill="url(#linear-gradient-3)"/>
        </g>
      </g>
    </g>
    <g id="Group_6" data-name="Group 6" transform="translate(1)">
      <g id="_5555" data-name="5555" transform="translate(415 312.543)">
        <path id="Path_14-3" data-name="Path 14" d="M59.266-509.466c-.844.343-.844.381.882,2.86,2.378,3.47,2.684,4.881,2.147,9.266-1.112,9.076-9.127,27.38-15.952,36.379a10.885,10.885,0,0,0-2.109,3.7c0,3.013,2.071,5.758,4.333,5.758,3.643,0,11.351,2.746,16.8,5.987l2.991,1.754L65.824-440.1c-6.6,9.419-11.581,15.6-16.067,19.905-3.72,3.508-4.832,4.195-8.973,5.415a23.411,23.411,0,0,0-4.026,1.563c-.767.572-.729.648,1.265,4.614a20.865,20.865,0,0,0,2.953,4.614c.882.572,1.189.5,5.254-1.144,7.938-3.165,16.374-5.949,18.023-5.949.69,0,1.956,2.212,2.914,5.186,1.611,4.919,1.726,7.665,1.419,35.464-.5,44.082-.537,40.04.652,42.556,1.3,2.822,3.528,4,5.867,3.127.805-.305,1.956-2.593,2.262-4.538.153-.877.307-18.456.307-39.086.077-42.976.46-38.362-3.8-42.747-1.342-1.411-2.339-2.631-2.147-2.746.153-.076,1-.381,1.841-.648s5.905-2.1,11.274-4.08c7.938-2.936,9.817-3.508,10.2-3.089.23.267,2.071,3.165,4.026,6.406,4.372,7.283,4.218,7.093,5.637,6.521,1.956-.8,2.608-2.44,2.608-6.368,0-3.279-.077-3.623-1.611-6.673-2.493-5-7.286-10.143-13.92-14.986-2.262-1.64-5.023-3.279-5.56-3.279-.575,0,0,1.525,1.726,4.462,2.569,4.271,5.484,10.067,5.215,10.3-.345.343-10.085,3.051-21.283,5.872-9.357,2.364-16.259,3.775-18.713,3.775-1.611,0-1-1.449,1.726-4.347,7.4-7.665,27.8-32.489,38.692-47.056,3.029-4.042,6.442-8.351,7.593-9.609a17.447,17.447,0,0,0,2.109-2.555c0-1.525-8.7-9.381-12.578-11.326-2.493-1.3-5.867-.686-4.755.839,1.419,1.945,2.761,5.339,2.761,6.978,0,4.08-2.608,11.059-6.9,18.494-2.608,4.5-8.666,13.728-9.242,14.071-.192.153-2.3-.877-4.678-2.212-2.339-1.373-6.6-3.584-9.357-5-2.8-1.373-5.1-2.707-5.1-2.936s2.224-3.89,4.947-8.122c8.973-13.957,15.684-25.435,17.1-29.286,1-2.669.46-3.623-3.95-6.9-6.672-5.072-6.557-5-9.088-5.11A10.054,10.054,0,0,0,59.266-509.466Z" transform="translate(-29.662 509.753)" fill="#7e4399"/>
        <path id="Path_15-2" data-name="Path 15" d="M285.6-507.718c-10.124,4.691-23.622,7.208-41.8,7.78-8.858.305-12.156-.114-17.026-2.136a10.778,10.778,0,0,0-2.953-.953c-.652.42-.767,2.441-.192,3.547.767,1.487,4.6,4.882,7.324,6.522,3.26,1.983,4.487,1.945,13.422-.267,14.764-3.661,25.041-5.492,35.164-6.255,5.445-.381,6.1-.381,6.979.229.882.572,1,.877,1,2.937,0,2.1-1.8,15.98-2.109,16.285-.153.153-13.422,2.212-29.336,4.5-16.221,2.365-18.253,2.25-25.616-1.259a9.521,9.521,0,0,0-3.375-1.106c-.345.114-.537.763-.537,1.792,0,2.1,1.035,3.432,5.1,6.56,3.566,2.784,5.829,4.081,7.056,4.081a53.864,53.864,0,0,0,6.251-1.526,201.73,201.73,0,0,1,34.7-6.445c2.531-.191,4.64-.305,4.678-.267.077.076-2.608,19.717-2.723,19.946-.038.038-8.321,1.373-18.445,2.975s-23.315,3.661-29.336,4.615c-13.23,2.1-17.256,2.288-21.474.992-1.572-.5-4.295-1.487-6.059-2.212a21.716,21.716,0,0,0-3.72-1.3c-.767,0-.767,2.708,0,4.157,1,1.945,5.56,5.721,8.82,7.322,4.832,2.4,5.944,2.365,13.843-.191a155.417,155.417,0,0,1,25.539-6.14c1.8-.229,1.841-.191,3.72,1.678,2.569,2.517,2.761,3.432,1.342,6.1-1.342,2.593-8.628,9.954-14.188,14.378a105.535,105.535,0,0,1-24.811,14.607c-4.333,1.792-4.832,2.517-1.38,2.174,10.009-1.068,22.088-5.835,34.282-13.539l1.917-1.182,2.991,3.051a19.367,19.367,0,0,1,2.953,3.623c0,.877-6.557,8.276-13.23,14.874a152.081,152.081,0,0,1-29.8,23.531c-2.761,1.64-5.177,2.975-5.33,2.975a.389.389,0,0,0-.345.42c0,.61,2.416.229,6.711-.992,13.345-3.852,27.3-12.891,42.719-27.726,4.448-4.271,4.832-4.538,5.33-3.89a48.258,48.258,0,0,1,3.911,8.5c.5,1.945.614,1.792-5.79,9.954-16.221,20.823-34.129,36.307-52.306,45.117-2.723,1.335-5.369,2.593-5.829,2.784-.652.267-.767.5-.5.915.268.458.844.458,3.988.076,14.61-1.831,32.825-13.882,57.061-37.833l6.4-6.331.192,1.373a149.969,149.969,0,0,1,.805,18.878c-.729,13.653-3.144,20.671-7.976,23.15-2.493,1.259-6.826.839-16.144-1.564-5.484-1.411-7.784-1.831-8.053-1.564-.537.534-.115.877,7.516,5.95,5.33,3.547,8.36,6.14,8.36,7.132a33.489,33.489,0,0,0,1.5,3.509c1.841,3.928,2.646,4.538,5.33,4,5.254-.992,9.932-5.454,13.767-13.158,6.9-13.768,7.248-33.333,1.074-57.4l-.92-3.623,2.186,2.288c4.448,4.691,14.419,18.382,27.227,37.413,7.056,10.526,9.664,13.577,11.888,14.035a116.345,116.345,0,0,0,15.454,1.22c7.439.267,7.554.267,7.976-.534.46-.877.153-1.182-14.38-12.891-9.51-7.7-17.333-15.026-30.678-28.6-13-13.272-20.554-21.167-20.4-21.319.077-.038,3.3-1.411,7.209-3.089a295.734,295.734,0,0,0,28.262-13.882c4.832-2.86,7.784-5.416,7.784-6.712,0-1.678-2.147-3.471-7.018-5.835-5.522-2.67-6.941-3.089-9.088-2.708-2.454.458-2.608.8-1.227,3.394,2.032,3.737,1.687,4.92-2.684,9-3.068,2.937-7.593,6.178-14.227,10.3-5.56,3.471-12.386,7.437-12.808,7.437a10.545,10.545,0,0,1-2.186-2.479A99.589,99.589,0,0,0,257.3-419.085l-2.646-2.212,6.749-6.216c7.286-6.674,11.159-10.564,11.159-11.213,0-.61-2.378-2.365-6.174-4.5-2.109-1.182-3.336-2.059-2.991-2.174.767-.305,10.085-1.983,15.722-2.9,14.725-2.365,31.56-3.432,43.447-2.746,7.976.5,9.625.343,11.006-.915a2.65,2.65,0,0,0,.077-3.509c-.959-1.106-3.835-2.441-8.283-3.852-5.714-1.831-7.4-1.869-11.964-.458-2.109.648-5.56,1.526-7.669,1.945-4.065.839-15.607,2.708-15.761,2.555-.115-.114,5.062-24.9,5.944-28.375a50.138,50.138,0,0,1,4.295-11.4c1.649-2.975,1.8-4.043.805-5.53-1.534-2.288-10.239-8.352-11.888-8.314A12.44,12.44,0,0,0,285.6-507.718Z" transform="translate(-130.89 509.227)" fill="#7e4399"/>
        <path id="Path_16" data-name="Path 16" d="M168-210.684a7.02,7.02,0,0,0,.422,1.457c.23.575,1.189,3.3,2.147,6.059a107.3,107.3,0,0,1,5.714,23.7c.92,8.053,1.8,9.855,4.678,9.855,4.563,0,6.136-8.628,3.144-17.64-2.186-6.711-8.628-17.448-13-21.743C169.227-210.876,168-211.528,168-210.684Z" transform="translate(-110.584 324.795)" fill="#7e4399"/>
        <path id="Path_17" data-name="Path 17" d="M32.537-205.556c-.805.345-.805.345.575,3.528,1.381,3.106,1.419,3.3,1.419,7.785a48.641,48.641,0,0,1-2.378,14.572,169.148,169.148,0,0,1-10.7,26.345A53.451,53.451,0,0,0,19-148.035c0,1.112,1.726.038,4.678-2.991,5.637-5.714,9.664-11.543,14.112-20.4,1.956-3.911,6.136-13.69,6.136-14.342,0-.115.767-2.186,1.726-4.6a27.822,27.822,0,0,0,1.726-5.6c0-2.838-9.2-10.009-12.731-9.932A6.736,6.736,0,0,0,32.537-205.556Z" transform="translate(-19 321.379)" fill="#7e4399"/>
      </g>
    </g>
    <path id="Path_91" data-name="Path 91" d="M1399.246,2661.527l-5.919,44.391-18.5,47.351,18.5,8.138,14.8-32.923,16.647,32.923,18.5-8.138-20.716-47.351-3.7-44.391Z" transform="translate(-448 -2420)" fill="#fff"/>
    <path id="Path_11" data-name="Path 11" d="M169.712-415.024c-1.114,37.272-13.876,73.379-35.7,100.928-4.659,5.874-17.066,18.332-22.89,22.941-15.344,12.2-33.93,22.08-54.541,28.916-6.786,2.279-7.191,2.482-6.786,3.494.253.608,1.874,5.672,3.6,11.242s3.292,10.28,3.494,10.483c.354.354,13.876-4.153,21.32-7.141a235.121,235.121,0,0,0,26.536-13.167c35.651-21.32,60.668-51.35,75.861-90.952.456-1.114,1.013-1.924,1.215-1.823a38.306,38.306,0,0,1,2.886,6.077c10.179,24.916,24,45.223,43.248,63.353,18.636,17.623,42.842,31.651,70.29,40.766,2.857.958,7.352,2.262,7.352,2.262s3.72-9.35,4.226-11.021,3.259-8.561,3.31-11.177l-10.584-3.815c-2.937-.911-6.229-2.076-7.343-2.583s-2.481-1.064-3.038-1.266c-2.684-1.013-19.345-9.622-24.308-12.559-1.671-1.013-4.355-2.735-5.925-3.9-1.57-1.114-4.1-2.887-5.571-3.95a38.25,38.25,0,0,1-3.95-3.039c-.709-.608-2.633-2.279-4.3-3.646-1.671-1.418-5.267-4.76-8-7.546-21.421-21.573-36.158-50.236-42.842-83.1a138.9,138.9,0,0,1-3.241-29.828l-.1-9.926h-23.9Zm20.459,2.684a140.561,140.561,0,0,0,2.279,22.231c.456,2.38.962,5.469,1.215,6.887,1.013,6.128,4.963,19.7,8.1,27.8,11.6,30.486,29.575,54.186,54.946,72.569,3.089,2.228,5.824,4.153,6.077,4.254.3.1,2.127,1.266,4.051,2.532,3.747,2.532,16.914,8.71,17.775,9.217.861.456,19.875,7.985,23.42,8.9l.513.235-5.5,15.227c-.405.405-15.8-5.571-21.624-8.1-2.178-.962-5.773-2.633-8-3.646-4.558-2.076-23.346-13.622-29.524-18.231a169.546,169.546,0,0,1-43.146-48.21,229.279,229.279,0,0,1-10.888-21.27c-.709-1.823-1.62-4-2.026-4.811-.81-1.924-3.95-10.685-5.115-14.534l-.861-2.887-2.633,7.7c-17.218,50.641-52.211,87.559-102.4,108.068-3.849,1.519-9.217,3.6-11.951,4.507l-4.963,1.671-.506-1.368c-1.165-3.038-4-12.154-4-12.812,0-.456,1.874-1.367,4.963-2.431,51.654-17.826,87.1-52.92,103.764-102.8a192.91,192.91,0,0,0,9.521-51.7c.2-3.748.405-7.141.557-7.495.152-.507,1.975-.608,7.9-.507l7.748.152Z" transform="translate(778.708 664.107)" fill="url(#linear-gradient-4)"/>
    <g id="Group_16" data-name="Group 16" transform="translate(1253 274.547)">
      <path id="Path_88" data-name="Path 88" d="M29.706,153.889l-.34-.75q21.985-9.745,49.752-35.451,23.46-22.17,33.319-38.985-30.374,4.606-42.5,8.033a16.28,16.28,0,0,1-3.4.536q-5.781,0-15.073-7.069-6.913-5.354-6.913-7.819a5.511,5.511,0,0,1,.68-2.249l1.02-.107q9.52,7.177,22.666,7.176,7.365,0,57.912-7.283V45.181a27.585,27.585,0,0,0-7.593-19.493v-.642a5.689,5.689,0,0,1,4.533-1.821q2.491,0,9.747,4.82,6.686,4.393,6.687,7.283a8.807,8.807,0,0,1-.567,2.892,59.557,59.557,0,0,0-2.153,14.566l-.567,15.958q16.206-1.82,33.092-3.106a193.551,193.551,0,0,0,26.066-3.427,27.39,27.39,0,0,1,4.533-.536,26.09,26.09,0,0,1,15.074,5.034q3.171,2.144,3.173,3.856,0,3.213-4.761,3.213a43.374,43.374,0,0,1-4.759-.321q-8.955-1.069-27.2-1.071A390.738,390.738,0,0,0,136.8,75.169v3.106q55.3,50.661,78.538,65.332a129.931,129.931,0,0,0,13.6,7.283,109.811,109.811,0,0,1,10.426,6v.857q-8.047,2.144-22.893,2.142a18.942,18.942,0,0,1-13.259-5.355q-20.854-19.813-40.573-41.877Q142.807,90.38,136.348,84.38l-.452,62.012Q150.4,145,159.241,143.5a26.723,26.723,0,0,1,3.966-.428q9.52,0,9.519,6,0,2.678-6.347,2.677l-10.879-.107a128.076,128.076,0,0,0-19.493,1.5v20.885q0,5.357.34,17.029.113,4.82.113,7.5,0,14.672-5.779,14.673-6.235,0-6.233-14.673,0-2.249.453-7.925.791-7.817.906-15.1l.567-21.313q-15.528,1.822-26.293,3.749a15.772,15.772,0,0,1-2.833.321q-2.609,0-7.594-4.5a8.355,8.355,0,0,1-2.833-4.5l.794-.321a39.713,39.713,0,0,0,9.633,1.5,185.02,185.02,0,0,0,29.466-2.571V80.633Q100.986,111.908,77.188,129.9,46.933,152.5,29.706,153.889Z" transform="translate(0)" fill="#558bc8"/>
    </g>
  </g>
</svg>
