<svg xmlns="http://www.w3.org/2000/svg" xmlns:xlink="http://www.w3.org/1999/xlink" width="500" height="228.249" viewBox="0 0 500 228.249">
  <defs>
    <linearGradient id="linear-gradient" x1="0.024" y1="0.5" x2="1" y2="0.5" gradientUnits="objectBoundingBox">
      <stop offset="0" stop-color="#7e4399"/>
      <stop offset="1" stop-color="#558bc8"/>
    </linearGradient>
  </defs>
  <g id="Group_4" data-name="Group 4" transform="translate(-710.1 -234.107)">
    <g id="Group_1" data-name="Group 1">
      <g id="logo">
        <text id="Юкарихон" transform="translate(710.1 424.084)" fill="#363836" font-size="94" font-family="CenturyGothic, Century Gothic"><tspan x="0" y="0">Юкарихон</tspan></text>
      </g>
      <text id="городская_школа" data-name="городская школа" transform="translate(957.403 456.356)" fill="#363836" font-size="28" font-family="CenturyGothic, Century Gothic"><tspan x="0" y="0">городская школа</tspan></text>
      <path id="Path_11" data-name="Path 11" d="M124.257-418.8c-.692,23.157-8.621,45.59-22.182,62.706a126.748,126.748,0,0,1-14.221,14.253,110.233,110.233,0,0,1-33.886,17.965c-4.216,1.416-4.468,1.542-4.216,2.171.157.377,1.164,3.524,2.234,6.985s2.045,6.387,2.171,6.513c.22.22,8.621-2.58,13.246-4.436a146.081,146.081,0,0,0,16.487-8.18c22.15-13.246,37.693-31.9,47.132-56.508.283-.692.629-1.2.755-1.133a23.8,23.8,0,0,1,1.793,3.775,109.03,109.03,0,0,0,26.87,39.361c11.578,10.949,26.618,19.664,43.671,25.328,1.775.6,4.568,1.406,4.568,1.406s2.311-5.809,2.626-6.847,2.025-5.319,2.056-6.944l-6.576-2.37c-1.825-.566-3.87-1.29-4.562-1.6s-1.542-.661-1.888-.787c-1.668-.629-12.019-5.978-15.1-7.8-1.038-.629-2.706-1.7-3.681-2.423-.975-.692-2.549-1.793-3.461-2.454a23.765,23.765,0,0,1-2.454-1.888c-.44-.377-1.636-1.416-2.674-2.265-1.038-.881-3.272-2.958-4.971-4.688-13.309-13.4-22.465-31.212-26.618-51.631a86.3,86.3,0,0,1-2.014-18.532L139.3-425H124.446Zm12.711,1.668a87.329,87.329,0,0,0,1.416,13.812c.283,1.479.6,3.4.755,4.279a116.3,116.3,0,0,0,5.034,17.273c7.205,18.941,18.375,33.666,34.138,45.087,1.919,1.384,3.618,2.58,3.776,2.643.189.063,1.321.786,2.517,1.573,2.328,1.573,10.509,5.412,11.044,5.726.535.283,12.348,4.961,14.551,5.527l.319.146-3.417,9.46c-.252.252-9.817-3.461-13.435-5.034-1.353-.6-3.587-1.636-4.971-2.265a190.866,190.866,0,0,1-18.343-11.327,105.339,105.339,0,0,1-26.807-29.953,142.449,142.449,0,0,1-6.765-13.215c-.44-1.133-1.007-2.485-1.259-2.989-.5-1.2-2.454-6.639-3.178-9.03l-.535-1.794-1.636,4.783c-10.7,31.463-32.439,54.4-63.619,67.142-2.391.944-5.726,2.234-7.425,2.8l-3.083,1.038-.315-.85c-.724-1.888-2.486-7.551-2.486-7.96,0-.283,1.164-.85,3.083-1.51,32.093-11.075,54.117-32.879,64.468-63.87a119.854,119.854,0,0,0,5.915-32.124c.126-2.328.252-4.436.346-4.657.094-.315,1.227-.378,4.908-.315l4.814.094Z" transform="translate(823.708 659.107)" fill="url(#linear-gradient)"/>
    </g>
  </g>
</svg>
