<svg xmlns="http://www.w3.org/2000/svg" xmlns:xlink="http://www.w3.org/1999/xlink" width="1090" height="424.964" viewBox="0 0 1090 424.964">
  <defs>
    <linearGradient id="linear-gradient" x1="0.283" y1="0.328" x2="0.678" y2="0.777" gradientUnits="objectBoundingBox">
      <stop offset="0" stop-color="#b714e9"/>
      <stop offset="1" stop-color="#71108f"/>
    </linearGradient>
    <linearGradient id="linear-gradient-2" x1="0.717" y1="0.328" x2="0.322" y2="0.777" xlink:href="#linear-gradient"/>
    <linearGradient id="linear-gradient-3" x1="0.283" y1="0.328" x2="0.685" y2="0.691" gradientUnits="objectBoundingBox">
      <stop offset="0" stop-color="#d284ec"/>
      <stop offset="1" stop-color="#9565a2"/>
    </linearGradient>
    <linearGradient id="linear-gradient-4" x1="0.717" y1="0.328" x2="0.315" y2="0.691" xlink:href="#linear-gradient-3"/>
    <linearGradient id="linear-gradient-5" x1="0.024" y1="0.5" x2="1" y2="0.5" gradientUnits="objectBoundingBox">
      <stop offset="0" stop-color="#7e4399"/>
      <stop offset="1" stop-color="#558bc8"/>
    </linearGradient>
  </defs>
  <g id="Group_2" data-name="Group 2" transform="translate(-415 -215.107)">
    <path id="Path_1" data-name="Path 1" d="M-50.4.025,63.2,53.074V153.083L-148.1,53.509Z" transform="translate(895.665 448.94)" fill="url(#linear-gradient)"/>
    <path id="Path_19" data-name="Path 19" d="M-28.339.025-146.813,53.074V153.083L72.558,53.448Z" transform="translate(1104.501 448.94)" fill="url(#linear-gradient-2)"/>
    <path id="Path_5" data-name="Path 5" d="M-34.334,83l22.22,9.1L2.894,97.45l26.441,9.73,23.507,8.584s13.39,4.532,19.337,7.284c6.916,3.2,30.243,12.891,30.243,12.891s17.39,7.509,20.006,9.324c1.074.745,6.149,4.974,6.149,4.974l4.074,5.371,2.6,4.672v3.513s-.451,1.622,0,2h0v38.234L-59,92.9S-80.531,80-81.933,78.373c-.489-.569-.289-1.129-.341-1.891-.1-1.1,1.33-2.661,1.33-2.661s2.587-3.322,5.158-7.113c1.238-1.829,8.686,2.7,8.686,2.7s8.665,3.112,12.254,4.862c3.816,1.861,6.23,2.3,10.123,4.1C-41.2,80-34.334,83-34.334,83Z" transform="translate(823.329 436.042)" fill="url(#linear-gradient-3)"/>
    <path id="Path_18" data-name="Path 18" d="M95.585,83,72.451,92.1,56.827,97.45,29.3,107.18,4.826,115.764s-13.94,4.532-20.132,7.284c-7.2,3.2-31.486,12.891-31.486,12.891s-18.105,7.509-20.829,9.324c-1.118.745-6.4,4.974-6.4,4.974l-4.242,5.371-1.542,4.074a11.378,11.378,0,0,0-1.163,3.549c-.113,1.076.63,2.054,0,2.565h0v38.234L121.262,92.9S143.681,80,145.141,78.373c.591-.66,0-1.849,0-1.849l-1.685-3.185s-2.039-2.839-4.715-6.63c-1.288-1.829-9.043,2.7-9.043,2.7s-9.022,3.112-12.758,4.862c-3.973,1.861-6.486,2.3-10.539,4.1C102.733,80,95.585,83,95.585,83Z" transform="translate(1039.016 436.042)" fill="url(#linear-gradient-4)"/>
    <path id="Path_3" data-name="Path 3" d="M836.557,434.085,835.93,341.5" transform="translate(122.224 161.773)" fill="none" stroke="#6c3d73" stroke-width="2"/>
    <path id="Path_7" data-name="Path 7" d="M1053.3,595.379" transform="translate(-88.392 6.644)" fill="none" stroke="#707070" stroke-width="1"/>
    <path id="Path_8" data-name="Path 8" d="M1041.8,630.79V587.21" transform="translate(-83.171 9.281)" fill="none" stroke="#7a5c8b" stroke-width="1"/>
    <path id="Path_10" data-name="Path 10" d="M1162.93,657" transform="translate(-204.776 -70.997)" fill="none" stroke="#707070" stroke-width="1"/>
    <g id="kanji01_go_074" transform="translate(1315.789 312.629)">
      <path id="Path_12" data-name="Path 12" d="M141.365,24.835q30.512,51.962,82.577,80.391l-11.975,14.995q-51.651-33.948-76.226-82.786V98.873h35.3v13.852H136.262v41.133H120.017V112.724H85.444V98.873h34.989V39.1q-22.076,50.714-73.1,87.681l-12.6-13.016q51.338-30.3,80.182-88.931H38.167V10.151h81.85V-33.377h16.245V10.151h83.2V24.835Z" transform="translate(-34.731 33.377)" fill="#558bc8"/>
    </g>
    <g id="_5555" data-name="5555" transform="translate(415 312.543)">
      <path id="Path_14" data-name="Path 14" d="M59.266-509.464c-.844.345-.844.383.882,2.876,2.378,3.49,2.684,4.908,2.147,9.318-1.112,9.127-9.127,27.533-15.952,36.583a10.964,10.964,0,0,0-2.109,3.72c0,3.029,2.071,5.79,4.333,5.79,3.643,0,11.351,2.761,16.8,6.021l2.991,1.764-2.531,3.681c-6.6,9.472-11.581,15.684-16.067,20.017-3.72,3.528-4.832,4.218-8.973,5.445a23.336,23.336,0,0,0-4.026,1.572c-.767.575-.729.652,1.265,4.64a20.993,20.993,0,0,0,2.953,4.64c.882.575,1.189.5,5.254-1.15,7.938-3.183,16.374-5.982,18.023-5.982.69,0,1.956,2.224,2.914,5.215,1.611,4.947,1.726,7.708,1.419,35.663-.5,44.329-.537,40.265.652,42.8,1.3,2.838,3.528,4.026,5.867,3.144.805-.307,1.956-2.608,2.262-4.563.153-.882.307-18.56.307-39.306.077-43.217.46-38.577-3.8-42.987-1.342-1.419-2.339-2.646-2.147-2.761.153-.077,1-.383,1.841-.652s5.905-2.109,11.274-4.1c7.938-2.953,9.817-3.528,10.2-3.106.23.268,2.071,3.183,4.026,6.442,4.372,7.324,4.218,7.133,5.637,6.557,1.956-.805,2.608-2.454,2.608-6.4,0-3.3-.077-3.643-1.611-6.711-2.493-5.024-7.286-10.2-13.92-15.07-2.262-1.649-5.023-3.3-5.56-3.3-.575,0,0,1.534,1.726,4.487,2.569,4.295,5.484,10.124,5.215,10.354-.345.345-10.085,3.068-21.283,5.905-9.357,2.378-16.259,3.8-18.713,3.8-1.611,0-1-1.457,1.726-4.372,7.4-7.708,27.8-32.672,38.692-47.321,3.029-4.065,6.442-8.4,7.593-9.663a17.527,17.527,0,0,0,2.109-2.569c0-1.534-8.7-9.433-12.578-11.389-2.493-1.3-5.867-.69-4.755.844,1.419,1.956,2.761,5.369,2.761,7.018,0,4.1-2.608,11.121-6.9,18.6-2.608,4.525-8.666,13.805-9.242,14.15-.192.153-2.3-.882-4.678-2.224-2.339-1.38-6.6-3.6-9.357-5.023-2.8-1.381-5.1-2.723-5.1-2.953s2.224-3.911,4.947-8.168c8.973-14.035,15.684-25.578,17.1-29.451,1-2.684.46-3.643-3.95-6.941-6.672-5.1-6.557-5.023-9.088-5.138A10,10,0,0,0,59.266-509.464Z" transform="translate(-29.662 509.753)" fill="#7e4399"/>
      <path id="Path_15" data-name="Path 15" d="M285.6-507.711c-10.124,4.717-23.622,7.248-41.8,7.823-8.858.307-12.156-.115-17.026-2.147a10.735,10.735,0,0,0-2.953-.959c-.652.422-.767,2.454-.192,3.566.767,1.5,4.6,4.909,7.324,6.557,3.26,1.994,4.487,1.956,13.422-.268,14.764-3.681,25.041-5.522,35.164-6.289,5.445-.383,6.1-.383,6.979.23.882.575,1,.882,1,2.953,0,2.109-1.8,16.068-2.109,16.374-.153.153-13.422,2.224-29.336,4.525-16.221,2.378-18.253,2.262-25.616-1.266a9.483,9.483,0,0,0-3.375-1.112c-.345.115-.537.767-.537,1.8,0,2.109,1.035,3.451,5.1,6.6,3.566,2.8,5.829,4.1,7.056,4.1a53.619,53.619,0,0,0,6.251-1.534,200.744,200.744,0,0,1,34.7-6.481c2.531-.192,4.64-.307,4.678-.268.077.077-2.608,19.826-2.723,20.056-.038.038-8.321,1.38-18.445,2.991s-23.315,3.681-29.336,4.64c-13.23,2.109-17.256,2.3-21.474,1-1.572-.5-4.295-1.5-6.059-2.224a21.635,21.635,0,0,0-3.72-1.3c-.767,0-.767,2.723,0,4.18,1,1.956,5.56,5.752,8.82,7.363,4.832,2.416,5.944,2.378,13.843-.192a154.708,154.708,0,0,1,25.539-6.174c1.8-.23,1.841-.192,3.72,1.687,2.569,2.531,2.761,3.451,1.342,6.136-1.342,2.608-8.628,10.009-14.188,14.457a105.405,105.405,0,0,1-24.811,14.687c-4.333,1.8-4.832,2.531-1.38,2.186,10.009-1.074,22.088-5.867,34.282-13.613l1.917-1.189,2.991,3.068a19.458,19.458,0,0,1,2.953,3.643c0,.882-6.557,8.321-13.23,14.955a152.209,152.209,0,0,1-29.8,23.66c-2.761,1.649-5.177,2.991-5.33,2.991a.39.39,0,0,0-.345.422c0,.614,2.416.23,6.711-1,13.345-3.873,27.3-12.961,42.719-27.878,4.448-4.295,4.832-4.563,5.33-3.911a48.649,48.649,0,0,1,3.911,8.551c.5,1.956.614,1.8-5.79,10.009-16.221,20.938-34.129,36.507-52.306,45.365-2.723,1.342-5.369,2.608-5.829,2.8-.652.268-.767.5-.5.92.268.46.844.46,3.988.077,14.61-1.841,32.825-13.958,57.061-38.04l6.4-6.366.192,1.38a151.613,151.613,0,0,1,.805,18.982c-.729,13.728-3.144,20.784-7.976,23.277-2.493,1.265-6.826.844-16.144-1.572-5.484-1.419-7.784-1.841-8.053-1.572-.537.537-.115.882,7.516,5.982,5.33,3.566,8.36,6.174,8.36,7.171a33.774,33.774,0,0,0,1.5,3.528c1.841,3.95,2.646,4.563,5.33,4.026,5.254-1,9.932-5.484,13.767-13.23,6.9-13.843,7.248-33.516,1.074-57.713l-.92-3.643,2.186,2.3c4.448,4.717,14.419,18.483,27.227,37.619,7.056,10.584,9.664,13.652,11.888,14.112A115.729,115.729,0,0,0,332.8-337.68c7.439.268,7.554.268,7.976-.537.46-.882.153-1.189-14.38-12.961-9.51-7.746-17.333-15.109-30.678-28.76-13-13.345-20.554-21.283-20.4-21.436.077-.038,3.3-1.419,7.209-3.106a295.067,295.067,0,0,0,28.262-13.958c4.832-2.876,7.784-5.445,7.784-6.749,0-1.687-2.147-3.49-7.018-5.867-5.522-2.684-6.941-3.106-9.088-2.723-2.454.46-2.608.805-1.227,3.413,2.032,3.758,1.687,4.947-2.684,9.05-3.068,2.953-7.593,6.212-14.227,10.354-5.56,3.49-12.386,7.478-12.808,7.478a10.581,10.581,0,0,1-2.186-2.493A99.9,99.9,0,0,0,257.3-418.592l-2.646-2.224,6.749-6.251c7.286-6.711,11.159-10.622,11.159-11.274,0-.614-2.378-2.378-6.174-4.525-2.109-1.189-3.336-2.071-2.991-2.186.767-.307,10.085-1.994,15.722-2.914,14.725-2.378,31.56-3.451,43.447-2.761,7.976.5,9.625.345,11.006-.92a2.676,2.676,0,0,0,.077-3.528c-.959-1.112-3.835-2.454-8.283-3.873-5.714-1.841-7.4-1.879-11.964-.46-2.109.652-5.56,1.534-7.669,1.956-4.065.844-15.607,2.723-15.761,2.569-.115-.115,5.062-25.041,5.944-28.53a50.583,50.583,0,0,1,4.295-11.466c1.649-2.991,1.8-4.065.805-5.56-1.534-2.3-10.239-8.4-11.888-8.36A12.393,12.393,0,0,0,285.6-507.711Z" transform="translate(-131.825 509.227)" fill="#7e4399"/>
      <path id="Path_16" data-name="Path 16" d="M168-210.684a7.02,7.02,0,0,0,.422,1.457c.23.575,1.189,3.3,2.147,6.059a107.3,107.3,0,0,1,5.714,23.7c.92,8.053,1.8,9.855,4.678,9.855,4.563,0,6.136-8.628,3.144-17.64-2.186-6.711-8.628-17.448-13-21.743C169.227-210.876,168-211.528,168-210.684Z" transform="translate(-110.863 325.592)" fill="#7e4399"/>
      <path id="Path_17" data-name="Path 17" d="M32.537-205.556c-.805.345-.805.345.575,3.528,1.381,3.106,1.419,3.3,1.419,7.785a48.641,48.641,0,0,1-2.378,14.572,169.148,169.148,0,0,1-10.7,26.345A53.451,53.451,0,0,0,19-148.035c0,1.112,1.726.038,4.678-2.991,5.637-5.714,9.664-11.543,14.112-20.4,1.956-3.911,6.136-13.69,6.136-14.342,0-.115.767-2.186,1.726-4.6a27.822,27.822,0,0,0,1.726-5.6c0-2.838-9.2-10.009-12.731-9.932A6.736,6.736,0,0,0,32.537-205.556Z" transform="translate(-19 322.42)" fill="#7e4399"/>
    </g>
    <path id="Path_11" data-name="Path 11" d="M180.763-414.105c-1.217,40.7-15.153,80.135-38.989,110.22-5.088,6.415-18.637,20.02-25,25.053-16.757,13.328-37.054,24.112-59.562,31.578-7.411,2.489-7.853,2.71-7.411,3.816.277.663,2.046,6.194,3.927,12.277s3.595,11.227,3.816,11.448c.387.387,15.153-4.535,23.283-7.8a256.767,256.767,0,0,0,28.979-14.379c38.934-23.283,66.254-56.078,82.845-99.326.5-1.217,1.106-2.1,1.327-1.991.277.11,1.659,3.1,3.152,6.636,11.116,27.21,26.214,49.387,47.23,69.185,20.352,19.246,46.787,34.565,76.762,44.519,3.12,1.046,8.029,2.471,8.029,2.471s4.062-10.211,4.615-12.036,3.559-9.349,3.615-12.206L325.825-248.8c-3.208-1-6.8-2.267-8.019-2.82s-2.71-1.161-3.318-1.383c-2.931-1.106-21.126-10.508-26.546-13.715-1.825-1.106-4.756-2.987-6.47-4.258-1.714-1.217-4.48-3.152-6.083-4.314a41.773,41.773,0,0,1-4.314-3.318c-.774-.663-2.876-2.489-4.7-3.982-1.825-1.548-5.752-5.2-8.738-8.24-23.393-23.559-39.487-54.862-46.787-90.754a151.689,151.689,0,0,1-3.539-32.574L207.2-425h-26.1Zm22.343,2.931a153.5,153.5,0,0,0,2.489,24.278c.5,2.6,1.051,5.973,1.327,7.521,1.106,6.692,5.42,21.513,8.849,30.362,12.665,33.293,32.3,59.175,60,79.251,3.374,2.433,6.36,4.535,6.636,4.646.332.11,2.323,1.382,4.424,2.765,4.093,2.765,18.471,9.512,19.412,10.065.94.5,21.705,8.72,25.577,9.716l.56.257-6.006,16.629c-.442.442-17.255-6.084-23.615-8.849-2.378-1.051-6.3-2.876-8.738-3.982-4.977-2.268-25.5-14.877-32.242-19.909-18.416-13.771-34.288-31.523-47.119-52.649a250.386,250.386,0,0,1-11.89-23.228c-.774-1.991-1.77-4.369-2.212-5.254-.885-2.1-4.314-11.669-5.586-15.872l-.94-3.152-2.876,8.406c-18.8,55.3-57.018,95.62-111.825,118.018-4.2,1.659-10.065,3.927-13.052,4.922l-5.42,1.825-.553-1.493c-1.272-3.318-4.369-13.273-4.369-13.992,0-.5,2.046-1.493,5.42-2.655,56.41-19.467,95.123-57.792,113.318-112.267a210.671,210.671,0,0,0,10.4-56.465c.221-4.093.442-7.8.608-8.185.166-.553,2.157-.664,8.627-.553l8.462.166Z" transform="translate(766.708 640.107)" fill="url(#linear-gradient-5)"/>
  </g>
</svg>
