<svg xmlns="http://www.w3.org/2000/svg" xmlns:xlink="http://www.w3.org/1999/xlink" width="1072" height="362.899" viewBox="0 0 1072 362.899">
  <defs>
    <linearGradient id="linear-gradient" x1="0.256" x2="0.975" y2="1" gradientUnits="objectBoundingBox">
      <stop offset="0" stop-color="#9c43c5"/>
      <stop offset="1" stop-color="#4e2263"/>
    </linearGradient>
    <linearGradient id="linear-gradient-2" x1="0.287" x2="1" y2="0.964" gradientUnits="objectBoundingBox">
      <stop offset="0" stop-color="#7e4399"/>
      <stop offset="1" stop-color="#3f224d"/>
    </linearGradient>
    <linearGradient id="linear-gradient-3" x1="0.713" y1="0.015" x2="0.029" y2="0.97" xlink:href="#linear-gradient-2"/>
    <linearGradient id="linear-gradient-4" x1="0.024" y1="0.5" x2="1" y2="0.5" gradientUnits="objectBoundingBox">
      <stop offset="0" stop-color="#7e4399"/>
      <stop offset="1" stop-color="#558bc8"/>
    </linearGradient>
  </defs>
  <g id="Group_7" data-name="Group 7" transform="translate(-415 -239.107)">
    <g id="Group_14" data-name="Group 14" transform="translate(-133 -654.313)">
      <path id="Path_15" data-name="Path 15" d="M119.134,244.515l-224.711-54.787Z" transform="translate(964.91 965.491)" fill="url(#linear-gradient)"/>
      <g id="book" transform="translate(859 952.108)">
        <g id="vector-open-book" transform="translate(0 0)">
          <path id="Path_14" data-name="Path 14" d="M276.3-384.9c-.4-.042-.916,44.8-.916,44.8s.135,155.13-2.575,155.6c-1.89.337-12.215,1.207-14.037,1.477a33.644,33.644,0,0,0-6.209,1.485c-.742.4-2.227.067-4.926-1.282-14.78-7.22-83.278-24.227-170.874-42.38-23.89-4.994-22.945-4.724-22.945-5.871,0-1.08.472-2.7,9.448-32.258,8.3-27.332,24.97-82.2,37.117-122.149,8.436-27.737,10.663-34.35,12.552-37.117.994-1.453,149.206,35.085,162.983,37.746.458.089.437.039.436,0,.022-.764-163.168-42.024-166.389-42.065a9.7,9.7,0,0,0-7.693,3.1c-.877.945-32.6,101.161-58.645,185.18C42.215-233.9,41-228.973,41-227.556c0,3.712,2.092,6.209,6.276,7.423,4.252,1.215,21.965,6,22.365,6.624.55.811,176.784,39.941,176.177,38.929-.2-.337,1.417.27,3.577,1.35,5.871,2.969,12.485,4.117,23.417,4.117h2.51s-1.417-19.857-1.246-47.415C274.47-280.357,276.894-385.44,276.3-384.9Z" transform="translate(-41 426.925)" fill="url(#linear-gradient-2)"/>
        </g>
        <g id="vector-open-book-2" data-name="vector-open-book" transform="translate(229.552 0)">
          <path id="Path_14-2" data-name="Path 14" d="M45.883-384.853c.2.2-3.719,199.685.2,200.36,1.89.337,12.215,1.207,14.037,1.477a33.644,33.644,0,0,1,6.209,1.485c.742.4,2.227.067,4.926-1.282,14.779-7.221,83.277-24.227,170.873-42.381,23.89-4.994,22.945-4.724,22.945-5.871,0-1.08-.472-2.7-9.448-32.258-8.3-27.332-24.97-82.2-37.117-122.149-8.436-27.737-10.663-34.35-12.552-37.117-.989-1.446-160.068,37.828-160.068,37.828v-.093c-.022-.764,159.817-42.014,163.037-42.054a9.7,9.7,0,0,1,7.693,3.1c.877.945,32.6,101.161,58.645,185.18,1.417,4.724,2.632,9.65,2.632,11.068,0,3.712-2.092,6.209-6.276,7.423-4.252,1.215-21.965,6-22.365,6.624-.55.811-176.785,39.941-176.177,38.929.2-.337-1.417.27-3.577,1.35-5.871,2.969-12.485,4.117-23.417,4.117-.3,0-1.253.128-1.663-.319C34.413-179.986,45.028-385.642,45.883-384.853Z" transform="translate(-40.15 426.925)" fill="url(#linear-gradient-3)"/>
        </g>
      </g>
    </g>
    <rect id="Rectangle_60" data-name="Rectangle 60" width="21" height="9" transform="translate(928 329)" fill="#fff"/>
    <rect id="Rectangle_61" data-name="Rectangle 61" width="22" height="9" transform="translate(972 329)" fill="#fff"/>
    <path id="Path_10" data-name="Path 10" d="M1162.93,657" transform="translate(-204.776 -54.997)" fill="none" stroke="#707070" stroke-width="1"/>
    <g id="Group_6" data-name="Group 6">
      <g id="kanji01_go_074" transform="translate(1297.789 310.629)">
        <path id="Path_12" data-name="Path 12" d="M141.365,24.835q30.512,51.962,82.577,80.391l-11.975,14.995q-51.651-33.948-76.226-82.786V98.873h35.3v13.852H136.262v41.133H120.017V112.724H85.444V98.873h34.989V39.1q-22.076,50.714-73.1,87.681l-12.6-13.016q51.338-30.3,80.182-88.931H38.167V10.151h81.85V-33.377h16.245V10.151h83.2V24.835Z" transform="translate(-34.731 33.377)" fill="#558bc8"/>
      </g>
      <g id="_5555" data-name="5555" transform="translate(415 312.543)">
        <path id="Path_14-3" data-name="Path 14" d="M59.266-509.464c-.844.345-.844.383.882,2.876,2.378,3.49,2.684,4.908,2.147,9.318-1.112,9.127-9.127,27.533-15.952,36.583a10.964,10.964,0,0,0-2.109,3.72c0,3.029,2.071,5.79,4.333,5.79,3.643,0,11.351,2.761,16.8,6.021l2.991,1.764-2.531,3.681c-6.6,9.472-11.581,15.684-16.067,20.017-3.72,3.528-4.832,4.218-8.973,5.445a23.336,23.336,0,0,0-4.026,1.572c-.767.575-.729.652,1.265,4.64a20.993,20.993,0,0,0,2.953,4.64c.882.575,1.189.5,5.254-1.15,7.938-3.183,16.374-5.982,18.023-5.982.69,0,1.956,2.224,2.914,5.215,1.611,4.947,1.726,7.708,1.419,35.663-.5,44.329-.537,40.265.652,42.8,1.3,2.838,3.528,4.026,5.867,3.144.805-.307,1.956-2.608,2.262-4.563.153-.882.307-18.56.307-39.306.077-43.217.46-38.577-3.8-42.987-1.342-1.419-2.339-2.646-2.147-2.761.153-.077,1-.383,1.841-.652s5.905-2.109,11.274-4.1c7.938-2.953,9.817-3.528,10.2-3.106.23.268,2.071,3.183,4.026,6.442,4.372,7.324,4.218,7.133,5.637,6.557,1.956-.805,2.608-2.454,2.608-6.4,0-3.3-.077-3.643-1.611-6.711-2.493-5.024-7.286-10.2-13.92-15.07-2.262-1.649-5.023-3.3-5.56-3.3-.575,0,0,1.534,1.726,4.487,2.569,4.295,5.484,10.124,5.215,10.354-.345.345-10.085,3.068-21.283,5.905-9.357,2.378-16.259,3.8-18.713,3.8-1.611,0-1-1.457,1.726-4.372,7.4-7.708,27.8-32.672,38.692-47.321,3.029-4.065,6.442-8.4,7.593-9.663a17.527,17.527,0,0,0,2.109-2.569c0-1.534-8.7-9.433-12.578-11.389-2.493-1.3-5.867-.69-4.755.844,1.419,1.956,2.761,5.369,2.761,7.018,0,4.1-2.608,11.121-6.9,18.6-2.608,4.525-8.666,13.805-9.242,14.15-.192.153-2.3-.882-4.678-2.224-2.339-1.38-6.6-3.6-9.357-5.023-2.8-1.381-5.1-2.723-5.1-2.953s2.224-3.911,4.947-8.168c8.973-14.035,15.684-25.578,17.1-29.451,1-2.684.46-3.643-3.95-6.941-6.672-5.1-6.557-5.023-9.088-5.138A10,10,0,0,0,59.266-509.464Z" transform="translate(-29.662 509.753)" fill="#7e4399"/>
        <path id="Path_15-2" data-name="Path 15" d="M285.6-507.711c-10.124,4.717-23.622,7.248-41.8,7.823-8.858.307-12.156-.115-17.026-2.147a10.735,10.735,0,0,0-2.953-.959c-.652.422-.767,2.454-.192,3.566.767,1.5,4.6,4.909,7.324,6.557,3.26,1.994,4.487,1.956,13.422-.268,14.764-3.681,25.041-5.522,35.164-6.289,5.445-.383,6.1-.383,6.979.23.882.575,1,.882,1,2.953,0,2.109-1.8,16.068-2.109,16.374-.153.153-13.422,2.224-29.336,4.525-16.221,2.378-18.253,2.262-25.616-1.266a9.483,9.483,0,0,0-3.375-1.112c-.345.115-.537.767-.537,1.8,0,2.109,1.035,3.451,5.1,6.6,3.566,2.8,5.829,4.1,7.056,4.1a53.619,53.619,0,0,0,6.251-1.534,200.744,200.744,0,0,1,34.7-6.481c2.531-.192,4.64-.307,4.678-.268.077.077-2.608,19.826-2.723,20.056-.038.038-8.321,1.38-18.445,2.991s-23.315,3.681-29.336,4.64c-13.23,2.109-17.256,2.3-21.474,1-1.572-.5-4.295-1.5-6.059-2.224a21.635,21.635,0,0,0-3.72-1.3c-.767,0-.767,2.723,0,4.18,1,1.956,5.56,5.752,8.82,7.363,4.832,2.416,5.944,2.378,13.843-.192a154.708,154.708,0,0,1,25.539-6.174c1.8-.23,1.841-.192,3.72,1.687,2.569,2.531,2.761,3.451,1.342,6.136-1.342,2.608-8.628,10.009-14.188,14.457a105.405,105.405,0,0,1-24.811,14.687c-4.333,1.8-4.832,2.531-1.38,2.186,10.009-1.074,22.088-5.867,34.282-13.613l1.917-1.189,2.991,3.068a19.458,19.458,0,0,1,2.953,3.643c0,.882-6.557,8.321-13.23,14.955a152.209,152.209,0,0,1-29.8,23.66c-2.761,1.649-5.177,2.991-5.33,2.991a.39.39,0,0,0-.345.422c0,.614,2.416.23,6.711-1,13.345-3.873,27.3-12.961,42.719-27.878,4.448-4.295,4.832-4.563,5.33-3.911a48.649,48.649,0,0,1,3.911,8.551c.5,1.956.614,1.8-5.79,10.009-16.221,20.938-34.129,36.507-52.306,45.365-2.723,1.342-5.369,2.608-5.829,2.8-.652.268-.767.5-.5.92.268.46.844.46,3.988.077,14.61-1.841,32.825-13.958,57.061-38.04l6.4-6.366.192,1.38a151.613,151.613,0,0,1,.805,18.982c-.729,13.728-3.144,20.784-7.976,23.277-2.493,1.265-6.826.844-16.144-1.572-5.484-1.419-7.784-1.841-8.053-1.572-.537.537-.115.882,7.516,5.982,5.33,3.566,8.36,6.174,8.36,7.171a33.774,33.774,0,0,0,1.5,3.528c1.841,3.95,2.646,4.563,5.33,4.026,5.254-1,9.932-5.484,13.767-13.23,6.9-13.843,7.248-33.516,1.074-57.713l-.92-3.643,2.186,2.3c4.448,4.717,14.419,18.483,27.227,37.619,7.056,10.584,9.664,13.652,11.888,14.112A115.729,115.729,0,0,0,332.8-337.68c7.439.268,7.554.268,7.976-.537.46-.882.153-1.189-14.38-12.961-9.51-7.746-17.333-15.109-30.678-28.76-13-13.345-20.554-21.283-20.4-21.436.077-.038,3.3-1.419,7.209-3.106a295.067,295.067,0,0,0,28.262-13.958c4.832-2.876,7.784-5.445,7.784-6.749,0-1.687-2.147-3.49-7.018-5.867-5.522-2.684-6.941-3.106-9.088-2.723-2.454.46-2.608.805-1.227,3.413,2.032,3.758,1.687,4.947-2.684,9.05-3.068,2.953-7.593,6.212-14.227,10.354-5.56,3.49-12.386,7.478-12.808,7.478a10.581,10.581,0,0,1-2.186-2.493A99.9,99.9,0,0,0,257.3-418.592l-2.646-2.224,6.749-6.251c7.286-6.711,11.159-10.622,11.159-11.274,0-.614-2.378-2.378-6.174-4.525-2.109-1.189-3.336-2.071-2.991-2.186.767-.307,10.085-1.994,15.722-2.914,14.725-2.378,31.56-3.451,43.447-2.761,7.976.5,9.625.345,11.006-.92a2.676,2.676,0,0,0,.077-3.528c-.959-1.112-3.835-2.454-8.283-3.873-5.714-1.841-7.4-1.879-11.964-.46-2.109.652-5.56,1.534-7.669,1.956-4.065.844-15.607,2.723-15.761,2.569-.115-.115,5.062-25.041,5.944-28.53a50.583,50.583,0,0,1,4.295-11.466c1.649-2.991,1.8-4.065.805-5.56-1.534-2.3-10.239-8.4-11.888-8.36A12.393,12.393,0,0,0,285.6-507.711Z" transform="translate(-131.825 509.227)" fill="#7e4399"/>
        <path id="Path_16" data-name="Path 16" d="M168-210.684a7.02,7.02,0,0,0,.422,1.457c.23.575,1.189,3.3,2.147,6.059a107.3,107.3,0,0,1,5.714,23.7c.92,8.053,1.8,9.855,4.678,9.855,4.563,0,6.136-8.628,3.144-17.64-2.186-6.711-8.628-17.448-13-21.743C169.227-210.876,168-211.528,168-210.684Z" transform="translate(-110.863 325.592)" fill="#7e4399"/>
        <path id="Path_17" data-name="Path 17" d="M32.537-205.556c-.805.345-.805.345.575,3.528,1.381,3.106,1.419,3.3,1.419,7.785a48.641,48.641,0,0,1-2.378,14.572,169.148,169.148,0,0,1-10.7,26.345A53.451,53.451,0,0,0,19-148.035c0,1.112,1.726.038,4.678-2.991,5.637-5.714,9.664-11.543,14.112-20.4,1.956-3.911,6.136-13.69,6.136-14.342,0-.115.767-2.186,1.726-4.6a27.822,27.822,0,0,0,1.726-5.6c0-2.838-9.2-10.009-12.731-9.932A6.736,6.736,0,0,0,32.537-205.556Z" transform="translate(-19 322.42)" fill="#7e4399"/>
      </g>
    </g>
    <path id="Path_11" data-name="Path 11" d="M169.712-415.024c-1.114,37.272-13.876,73.379-35.7,100.928-4.659,5.874-17.066,18.332-22.89,22.941-15.344,12.2-33.93,22.08-54.541,28.916-6.786,2.279-7.191,2.482-6.786,3.494.253.608,1.874,5.672,3.6,11.242s3.292,10.28,3.494,10.483c.354.354,13.876-4.153,21.32-7.141a235.121,235.121,0,0,0,26.536-13.167c35.651-21.32,60.668-51.35,75.861-90.952.456-1.114,1.013-1.924,1.215-1.823a38.306,38.306,0,0,1,2.886,6.077c10.179,24.916,24,45.223,43.248,63.353,18.636,17.623,42.842,31.651,70.29,40.766,2.857.958,7.352,2.262,7.352,2.262s3.72-9.35,4.226-11.021,3.259-8.561,3.31-11.177l-10.584-3.815c-2.937-.911-6.229-2.076-7.343-2.583s-2.481-1.064-3.038-1.266c-2.684-1.013-19.345-9.622-24.308-12.559-1.671-1.013-4.355-2.735-5.925-3.9-1.57-1.114-4.1-2.887-5.571-3.95a38.25,38.25,0,0,1-3.95-3.039c-.709-.608-2.633-2.279-4.3-3.646-1.671-1.418-5.267-4.76-8-7.546-21.421-21.573-36.158-50.236-42.842-83.1a138.9,138.9,0,0,1-3.241-29.828l-.1-9.926h-23.9Zm20.459,2.684a140.561,140.561,0,0,0,2.279,22.231c.456,2.38.962,5.469,1.215,6.887,1.013,6.128,4.963,19.7,8.1,27.8,11.6,30.486,29.575,54.186,54.946,72.569,3.089,2.228,5.824,4.153,6.077,4.254.3.1,2.127,1.266,4.051,2.532,3.747,2.532,16.914,8.71,17.775,9.217.861.456,19.875,7.985,23.42,8.9l.513.235-5.5,15.227c-.405.405-15.8-5.571-21.624-8.1-2.178-.962-5.773-2.633-8-3.646-4.558-2.076-23.346-13.622-29.524-18.231a169.546,169.546,0,0,1-43.146-48.21,229.279,229.279,0,0,1-10.888-21.27c-.709-1.823-1.62-4-2.026-4.811-.81-1.924-3.95-10.685-5.115-14.534l-.861-2.887-2.633,7.7c-17.218,50.641-52.211,87.559-102.4,108.068-3.849,1.519-9.217,3.6-11.951,4.507l-4.963,1.671-.506-1.368c-1.165-3.038-4-12.154-4-12.812,0-.456,1.874-1.367,4.963-2.431,51.654-17.826,87.1-52.92,103.764-102.8a192.91,192.91,0,0,0,9.521-51.7c.2-3.748.405-7.141.557-7.495.152-.507,1.975-.608,7.9-.507l7.748.152Z" transform="translate(778.708 664.107)" fill="url(#linear-gradient-4)"/>
  </g>
</svg>
