<svg xmlns="http://www.w3.org/2000/svg" xmlns:xlink="http://www.w3.org/1999/xlink" width="193" height="82.141" viewBox="0 0 193 82.141">
  <defs>
    <linearGradient id="linear-gradient" x1="0.024" y1="0.5" x2="1" y2="0.5" gradientUnits="objectBoundingBox">
      <stop offset="0" stop-color="#7e4399"/>
      <stop offset="1" stop-color="#558bc8"/>
    </linearGradient>
  </defs>
  <g id="Group_5" data-name="Group 5" transform="translate(-97.1 -43.93)">
    <g id="Group_3" data-name="Group 3">
      <g id="logo-nav" transform="translate(30 -118)">
        <text id="Юкарихон" transform="translate(67.1 236.071)" fill="#363836" font-size="36" font-family="CenturyGothic-Bold, Century Gothic" font-weight="700"><tspan x="0" y="0">Юкарихон</tspan></text>
      </g>
      <path id="Path_39" data-name="Path 39" d="M77.89-422.656a40.423,40.423,0,0,1-8.39,23.718,47.938,47.938,0,0,1-5.379,5.391,41.694,41.694,0,0,1-12.817,6.8c-1.595.536-1.69.583-1.595.821.06.143.44,1.333.845,2.642s.774,2.416.821,2.463a40.293,40.293,0,0,0,5.01-1.678,55.253,55.253,0,0,0,6.236-3.094,41.277,41.277,0,0,0,17.827-21.373c.107-.262.238-.452.286-.428a9,9,0,0,1,.678,1.428,41.239,41.239,0,0,0,10.163,14.888,44.38,44.38,0,0,0,16.518,9.58c.671.225,1.728.532,1.728.532s.874-2.2.993-2.59a15.082,15.082,0,0,0,.778-2.627l-2.487-.9c-.69-.214-1.464-.488-1.726-.607s-.583-.25-.714-.3c-.631-.238-4.546-2.261-5.712-2.951-.393-.238-1.023-.643-1.392-.916s-.964-.678-1.309-.928a8.979,8.979,0,0,1-.928-.714c-.167-.143-.619-.535-1.012-.857s-1.238-1.119-1.88-1.773a38.253,38.253,0,0,1-10.068-19.529,32.642,32.642,0,0,1-.762-7.009L83.579-425H77.962Zm4.808.631a33.032,33.032,0,0,0,.536,5.224c.107.559.226,1.285.286,1.618a43.99,43.99,0,0,0,1.9,6.533A36.291,36.291,0,0,0,98.335-391.6c.726.524,1.369.976,1.428,1s.5.3.952.6c.881.6,3.975,2.047,4.177,2.166s4.671,1.876,5.5,2.091l.121.055-1.292,3.578a47.307,47.307,0,0,1-5.082-1.9c-.512-.226-1.357-.619-1.88-.857a72.2,72.2,0,0,1-6.938-4.284,39.843,39.843,0,0,1-10.139-11.329,53.867,53.867,0,0,1-2.559-5c-.167-.428-.381-.94-.476-1.131-.19-.452-.928-2.511-1.2-3.415l-.2-.678-.619,1.809a40.846,40.846,0,0,1-24.063,25.4c-.9.357-2.166.845-2.809,1.059l-1.166.393-.119-.321c-.274-.714-.94-2.856-.94-3.011,0-.107.44-.321,1.166-.571,12.139-4.189,20.469-12.436,24.384-24.158a45.333,45.333,0,0,0,2.237-12.15c.048-.881.1-1.678.131-1.761.036-.119.464-.143,1.856-.119l1.821.036Z" transform="translate(109.708 468.93)" fill="url(#linear-gradient)"/>
    </g>
  </g>
</svg>
