<?xml version="1.0" encoding="UTF-8" standalone="no"?>
<svg
   xmlns:dc="http://purl.org/dc/elements/1.1/"
   xmlns:cc="http://creativecommons.org/ns#"
   xmlns:rdf="http://www.w3.org/1999/02/22-rdf-syntax-ns#"
   xmlns:svg="http://www.w3.org/2000/svg"
   xmlns="http://www.w3.org/2000/svg"
   viewBox="0 0 265.92001 384.62668"
   height="384.62668"
   width="265.92001"
   xml:space="preserve"
   id="svg2"
   version="1.1"><metadata
     id="metadata8"><rdf:RDF><cc:Work
         rdf:about=""><dc:format>image/svg+xml</dc:format><dc:type
           rdf:resource="http://purl.org/dc/dcmitype/StillImage" /></cc:Work></rdf:RDF></metadata><defs
     id="defs6" /><g
     transform="matrix(1.3333333,0,0,-1.3333333,0,384.62667)"
     id="g10"><g
       transform="scale(0.1)"
       id="g12"><path
         id="path14"
         style="fill:#ffffff;fill-opacity:1;fill-rule:nonzero;stroke:none"
         d="M 1340.19,923.91 980,1031.04 v 1637.43 l 360.19,-107.14 V 923.91" /><path
         id="path16"
         style="fill:none;stroke:#211c1d;stroke-width:20;stroke-linecap:butt;stroke-linejoin:bevel;stroke-miterlimit:10;stroke-dasharray:none;stroke-opacity:1"
         d="M 1340.19,923.91 980,1031.04 v 1637.43 l 360.19,-107.14 z" /><path
         id="path18"
         style="fill:#ffffff;fill-opacity:1;fill-rule:nonzero;stroke:none"
         d="M 980,2667.83 V 2122 L 589.746,1896.7 v 545.82 L 401.074,2333.58 V 1787.77 1241.98 696.16 L 589.746,805.051 V 1350.88 L 980,1576.22 v -270.18 l 360.19,207.97 V 1784.16 2330 2875.79 L 980,2667.83" /><path
         id="path20"
         style="fill:none;stroke:#211c1d;stroke-width:20;stroke-linecap:butt;stroke-linejoin:bevel;stroke-miterlimit:2;stroke-dasharray:none;stroke-opacity:1"
         d="M 980,2667.83 V 2122 L 589.746,1896.7 v 545.82 L 401.074,2333.58 V 1787.77 1241.98 696.16 L 589.746,805.051 V 1350.88 L 980,1576.22 v -270.18 l 360.19,207.97 v 270.15 545.84 545.79 z" /><path
         id="path22"
         style="fill:#ffffff;fill-opacity:1;fill-rule:nonzero;stroke:none"
         d="m 1339.26,2876.08 -359.475,-207.55 360.235,-107.15 359.49,207.56 c 0,0 -108.55,9.99 -220.86,46.13 -99.21,31.92 -139.39,61.01 -139.39,61.01" /><path
         id="path24"
         style="fill:none;stroke:#211c1d;stroke-width:20;stroke-linecap:butt;stroke-linejoin:bevel;stroke-miterlimit:10;stroke-dasharray:none;stroke-opacity:1"
         d="m 1339.26,2876.08 -359.475,-207.55 360.235,-107.15 359.49,207.56 c 0,0 -108.55,9.99 -220.86,46.13 -99.21,31.92 -139.39,61.01 -139.39,61.01 z" /><path
         id="path26"
         style="fill:#ffffff;fill-opacity:1;fill-rule:nonzero;stroke:none"
         d="M 1340.19,2560.66 V 2014.84 L 979.98,1806.88 v 545.8 L 589.746,2210.52 v -19.26 l -281.191,53.87 V 612.09 l 0.586,-0.121 c -3.731,-21.989 11.211,-40.75 45.722,-51.028 l 110.664,-32.89 c 68.614,-20.43 189.61,0.308 268.848,46.051 l 69.102,39.886 173.945,100.461 2.558,0.789 V 1261.1 l 360.21,207.97 V 923.25 l 360.26,207.98 v 545.82 545.82 545.78 l -360.26,-207.99" /><path
         id="path28"
         style="fill:none;stroke:#211c1d;stroke-width:20;stroke-linecap:butt;stroke-linejoin:miter;stroke-miterlimit:10;stroke-dasharray:none;stroke-opacity:1"
         d="M 1340.19,2560.66 V 2014.84 L 979.98,1806.88 v 545.8 L 589.746,2210.52 v -19.26 l -281.191,53.87 V 612.09 l 0.586,-0.121 c -3.731,-21.989 11.211,-40.75 45.722,-51.028 l 110.664,-32.89 c 68.614,-20.43 189.61,0.308 268.848,46.051 l 69.102,39.886 173.945,100.461 2.558,0.789 V 1261.1 l 360.21,207.97 V 923.25 l 360.26,207.98 v 545.82 545.82 545.78 z" /><path
         id="path30"
         style="fill:#ffffff;fill-opacity:1;fill-rule:nonzero;stroke:none"
         d="m 619.551,2459.39 -176.27,-101.76 -69.121,-39.92 c -79.258,-45.75 -87.93,-99.87 -19.297,-120.3 l 110.664,-32.9 c 68.614,-20.43 189.61,0.31 268.848,46.06 l 69.102,39.88 176.308,101.79 -360.234,107.15" /><path
         id="path32"
         style="fill:none;stroke:#211c1d;stroke-width:20;stroke-linecap:butt;stroke-linejoin:bevel;stroke-miterlimit:10;stroke-dasharray:none;stroke-opacity:1"
         d="m 619.551,2459.39 -176.27,-101.76 -69.121,-39.92 c -79.258,-45.75 -87.93,-99.87 -19.297,-120.3 l 110.664,-32.9 c 68.614,-20.43 189.61,0.31 268.848,46.06 l 69.102,39.88 176.308,101.79 z" /><path
         id="path34"
         style="fill:#ffffff;fill-opacity:1;fill-rule:nonzero;stroke:none"
         d="M 589.746,528.91 V 2159.16" /><path
         id="path36"
         style="fill:none;stroke:#211c1d;stroke-width:20;stroke-linecap:butt;stroke-linejoin:bevel;stroke-miterlimit:10;stroke-dasharray:none;stroke-opacity:1"
         d="M 589.746,528.91 V 2159.16" /><path
         id="path38"
         style="fill:#ffffff;fill-opacity:1;fill-rule:nonzero;stroke:none"
         d="m 1340.19,2017.23 -360.17,104.81 v 542.57 l 360.17,-103.28 v -544.1" /><path
         id="path40"
         style="fill:none;stroke:#211c1d;stroke-width:20;stroke-linecap:butt;stroke-linejoin:bevel;stroke-miterlimit:10;stroke-dasharray:none;stroke-opacity:1"
         d="m 1340.19,2017.23 -360.17,104.81 v 542.57 l 360.17,-103.28 z" /><path
         id="path42"
         style="fill:#100f0d;fill-opacity:1;fill-rule:nonzero;stroke:none"
         d="m 1345.19,1445.02 -10,-5.77 V 929.898 l 10,-2.976 v 518.098" /><path
         id="path44"
         style="fill:#100f0d;fill-opacity:1;fill-rule:nonzero;stroke:none"
         d="m 1335.19,2567.98 v -545.95 l 10,-2.98 v 545.96 l -10,2.97" /><path
         id="path46"
         style="fill:#110f0e;fill-opacity:1;fill-rule:nonzero;stroke:none"
         d="m 1694.47,2770.63 -7.52,2.24 -359.49,-207.56 13.18,-3.93 355.98,205.53 -2.15,3.72" /><path
         id="path48"
         style="fill:#100f0d;fill-opacity:1;fill-rule:nonzero;stroke:none"
         d="m 973.281,2108.39 24.239,13.99 -13.145,3.96 -11.094,-6.41 v -11.54" /><path
         id="path50"
         style="fill:#ffffff;fill-opacity:1;fill-rule:nonzero;stroke:none"
         d="m 317.578,1719.03 c -19.433,-30.44 -7.637,-58.25 37.285,-71.62 l 110.664,-32.9 c 32.852,-9.78 77.696,-10.13 124.239,-2.81" /><path
         id="path52"
         style="fill:#211c1d;fill-opacity:1;fill-rule:nonzero;stroke:none"
         d="m 318.227,1718.66 c 0,0 -0.633,-1.17 -1.813,-3.35 -1.25,-2.18 -2.738,-5.4 -4.152,-9.69 -1.504,-4.26 -2.422,-9.77 -1.934,-15.89 0.527,-6.12 3.121,-12.78 8.035,-18.48 4.871,-5.75 11.809,-10.52 19.778,-14.2 8.011,-3.76 16.91,-6.22 26.609,-8.75 19.168,-5.13 39.617,-10.6 60.063,-16.08 10.226,-2.74 20.449,-5.47 30.511,-8.17 10.149,-2.74 19.742,-5.4 29.071,-6.71 18.925,-2.85 37.078,-2.81 52.519,-2.02 15.469,0.83 28.313,2.56 37.262,3.9 8.953,1.36 14.031,2.36 14.031,2.36 l 3.113,-19.75 c 0,0 -5.332,-0.91 -14.734,-2.06 -9.398,-1.14 -22.875,-2.57 -39.195,-3 -16.313,-0.37 -35.504,0.09 -56.055,3.78 -10.512,1.8 -20.813,5 -30.637,7.94 -9.98,2.97 -20.125,5.98 -30.265,8.99 -20.282,6.03 -40.567,12.06 -59.582,17.71 -9.204,2.67 -19.547,5.79 -28.493,10.33 -9.023,4.5 -17.355,10.42 -23.515,18.11 -6.231,7.61 -9.653,17.06 -10.09,25.32 -0.449,8.26 1.059,15.25 2.984,20.35 1.836,5.2 4.184,9.67 5.27,11.43 1.242,2.14 1.902,3.29 1.902,3.29 l 9.317,-5.36" /><path
         id="path54"
         style="fill:#211c1d;fill-opacity:1;fill-rule:nonzero;stroke:none"
         d="m 317.895,2269.19 c 0,0 -0.629,-1.17 -1.809,-3.35 -1.238,-2.16 -2.75,-5.43 -4.168,-9.75 -1.512,-4.29 -2.438,-9.86 -1.934,-16.04 0.536,-6.18 3.164,-12.92 8.129,-18.66 4.914,-5.8 11.895,-10.58 19.895,-14.26 8.039,-3.77 16.972,-6.22 26.664,-8.74 19.176,-5.11 39.633,-10.56 60.086,-16.01 10.226,-2.73 20.453,-5.46 30.519,-8.15 10.153,-2.73 19.75,-5.37 29.09,-6.67 18.946,-2.83 37.102,-2.77 52.547,-1.96 15.473,0.86 28.316,2.6 37.266,3.95 8.953,1.36 14.031,2.38 14.031,2.38 l 3.105,-19.76 c 0,0 -5.343,-0.83 -14.757,-1.83 -9.411,-1.01 -22.899,-2.24 -39.192,-2.43 -16.273,-0.13 -35.402,0.62 -55.742,4.57 -10.367,1.92 -20.527,5.24 -30.336,8.34 -9.937,3.12 -20.035,6.29 -30.129,9.45 -20.191,6.34 -40.383,12.68 -59.312,18.62 -9.278,2.84 -19.172,5.99 -27.727,10.49 -8.609,4.43 -16.363,10.16 -21.91,17.29 -5.613,7.06 -8.52,15.53 -8.824,22.94 -0.293,7.41 1.117,13.73 2.976,18.42 1.77,4.76 3.809,8.6 5.032,10.51 1.269,2.13 1.949,3.27 1.949,3.27 l 4.551,-2.62" /><path
         id="path56"
         style="fill:#211c1d;fill-opacity:1;fill-rule:nonzero;stroke:none"
         d="m 317.895,642.82 c 0,0 -0.629,-1.16 -1.809,-3.351 -1.238,-2.16 -2.75,-5.43 -4.168,-9.75 -1.512,-4.289 -2.438,-9.848 -1.934,-16.039 0.536,-6.18 3.164,-12.91 8.129,-18.66 4.914,-5.79 11.895,-10.571 19.895,-14.258 8.039,-3.774 16.972,-6.223 26.668,-8.731 19.172,-5.109 39.629,-10.57 60.082,-16.019 10.226,-2.731 20.453,-5.453 30.523,-8.141 10.149,-2.73 19.75,-5.371 29.09,-6.672 18.942,-2.828 37.098,-2.769 52.543,-1.961 15.473,0.852 28.316,2.594 37.266,3.953 8.953,1.36 14.031,2.368 14.031,2.368 l 3.105,-19.758 c 0,0 -5.343,-0.821 -14.757,-1.832 -9.411,-1.008 -22.899,-2.231 -39.192,-2.418 -16.273,-0.129 -35.402,0.609 -55.742,4.558 -10.367,1.93 -20.527,5.25 -30.336,8.34 -9.937,3.121 -20.031,6.289 -30.129,9.461 -20.191,6.328 -40.383,12.672 -59.312,18.61 -9.278,2.839 -19.172,6 -27.727,10.492 -8.609,4.437 -16.359,10.16 -21.91,17.289 -5.613,7.058 -8.52,15.527 -8.824,22.937 -0.297,7.41 1.117,13.731 2.976,18.422 1.77,4.762 3.809,8.602 5.032,10.52 1.269,2.129 1.949,3.261 1.949,3.261 l 4.551,-2.621" /><path
         id="path58"
         style="fill:#ffffff;fill-opacity:1;fill-rule:nonzero;stroke:none"
         d="m 317.578,1174.4 c -19.433,-30.44 -7.637,-58.24 37.285,-71.62 l 110.664,-32.89 c 32.852,-9.79 77.696,-10.14 124.239,-2.81" /><path
         id="path60"
         style="fill:#211c1d;fill-opacity:1;fill-rule:nonzero;stroke:none"
         d="m 318.227,1174.03 c 0,0 -0.633,-1.17 -1.813,-3.35 -1.25,-2.18 -2.738,-5.4 -4.152,-9.68 -1.504,-4.27 -2.422,-9.78 -1.934,-15.9 0.527,-6.12 3.121,-12.78 8.039,-18.48 4.867,-5.75 11.805,-10.52 19.774,-14.2 8.011,-3.76 16.91,-6.22 26.609,-8.75 19.172,-5.13 39.617,-10.6 60.063,-16.08 10.226,-2.73 20.449,-5.47 30.515,-8.16 10.149,-2.75 19.742,-5.4 29.067,-6.71 18.925,-2.86 37.078,-2.82 52.519,-2.03 15.469,0.84 28.313,2.56 37.262,3.91 8.953,1.35 14.035,2.35 14.035,2.35 l 3.105,-19.75 c 0,0 -5.328,-0.91 -14.73,-2.06 -9.398,-1.14 -22.875,-2.57 -39.195,-3 -16.313,-0.37 -35.504,0.09 -56.055,3.78 -10.512,1.81 -20.809,5.01 -30.637,7.94 -9.98,2.97 -20.125,5.98 -30.265,9 -20.282,6.03 -40.567,12.05 -59.579,17.71 -9.207,2.66 -19.55,5.78 -28.496,10.32 -9.023,4.5 -17.351,10.42 -23.515,18.11 -6.231,7.61 -9.653,17.06 -10.09,25.32 -0.449,8.26 1.059,15.25 2.984,20.36 1.836,5.19 4.184,9.66 5.27,11.42 1.242,2.14 1.902,3.29 1.902,3.29 l 9.317,-5.36" /><path
         id="path62"
         style="fill:none;stroke:#211c1d;stroke-width:20;stroke-linecap:butt;stroke-linejoin:bevel;stroke-miterlimit:10;stroke-dasharray:none;stroke-opacity:1"
         d="M 611.406,2169.94 311.074,2256.4" /><path
         id="path64"
         style="fill:#110f0e;fill-opacity:1;fill-rule:nonzero;stroke:none"
         d="m 520.43,2159.43 -12.246,-7.05 13.203,-3.93 15.332,8.86 -16.289,2.12" /><path
         id="path66"
         style="fill:#110f0e;fill-opacity:1;fill-rule:nonzero;stroke:none"
         d="m 477.383,2165.07 -3.574,-2.05 c 4.804,-1.14 9.765,-2.12 14.961,-2.91 l 4.921,2.84 -16.308,2.12" /><path
         id="path68"
         style="fill:#110f0e;fill-opacity:1;fill-rule:nonzero;stroke:none"
         d="m 311.074,2256.4 c -1.523,-4.41 -2.207,-8.69 -2.304,-12.87 l 2.304,1.33 v 11.54" /><path
         id="path70"
         style="fill:#110f0e;fill-opacity:1;fill-rule:nonzero;stroke:none"
         d="m 313.125,2227.11 -10.117,-5.84 4.219,-9.12 13.359,7.71 -7.461,7.25" /><path
         id="path72"
         style="fill:#110f0e;fill-opacity:1;fill-rule:nonzero;stroke:none"
         d="m 332.559,2208.23 -0.762,-0.46 c 0.898,-0.51 1.875,-1.02 2.812,-1.54 l -2.05,2" /><path
         id="path74"
         style="fill:#ffffff;fill-opacity:1;fill-rule:nonzero;stroke:none"
         d="m 1427.93,2622.04 -169.52,50.75 148.25,84.41 202.75,-33.46 v -527.58 l -87.08,9.21 -94.4,-110.23 v 526.9" /><path
         id="path76"
         style="fill:#cc1e25;fill-opacity:1;fill-rule:nonzero;stroke:none"
         d="m 1403.85,2772.87 -183.33,-104.4 192.41,-57.6 v -556.31 l 115.66,135.06 95.82,-10.13 v 556.98 l -220.56,36.4 z m 5.61,-31.33 184.95,-30.52 v -498.19 l -62.66,6.62 -15.69,1.66 -10.25,-11.98 -62.88,-73.42 v 475.16 22.33 l -21.4,6.41 -125.23,37.49 113.16,64.44" /><path
         id="path78"
         style="fill:none;stroke:#211c1d;stroke-width:20;stroke-linecap:butt;stroke-linejoin:miter;stroke-miterlimit:10;stroke-dasharray:none;stroke-opacity:1"
         d="M 634.168,2173.7 V 542.832" /><path
         id="path80"
         style="fill:#100f0d;fill-opacity:1;fill-rule:nonzero;stroke:none"
         d="M 143.098,3.60156 17.0977,175.488 V 3.60156 H 0 V 203.691 H 17.4023 L 142.797,34.1914 V 203.691 h 17.101 V 3.60156 h -16.8" /><path
         id="path82"
         style="fill:#100f0d;fill-opacity:1;fill-rule:nonzero;stroke:none"
         d="M 304.195,185.398 257.102,68.3906 h 94.492 z M 377.094,3.60156 357.297,52.8008 H 251.395 L 231.598,3.60156 H 211.801 L 293.695,203.691 h 21.301 L 396.891,3.60156 h -19.797" /><path
         id="path84"
         style="fill:#100f0d;fill-opacity:1;fill-rule:nonzero;stroke:none"
         d="M 448.793,80.3984 V 203.691 h 17.402 V 80.6992 c 0,-40.5 21.301,-65.0976 60.598,-65.0976 39.598,0 60.594,24.5976 60.594,65.0976 V 203.691 h 17.402 V 80.3984 C 604.789,30.8906 578.391,0 526.793,0 c -51.301,0 -78,31.1992 -78,80.3984" /><path
         id="path86"
         style="fill:#100f0d;fill-opacity:1;fill-rule:nonzero;stroke:none"
         d="m 669.59,103.488 c 0,61.512 44.703,103.5 101.394,103.5 31.805,0 55.801,-14.09 72.903,-35.398 l -14.399,-9.301 c -12.601,17.402 -34.504,29.102 -58.504,29.102 -47.093,0 -83.39,-35.7 -83.39,-87.903 0,-51.5896 36.297,-87.8864 83.39,-87.8864 24,0 45.903,11.6992 58.504,29.0898 l 14.399,-8.9922 C 826.188,13.7891 802.789,0 770.984,0 714.293,0 669.59,42 669.59,103.488" /><path
         id="path88"
         style="fill:#100f0d;fill-opacity:1;fill-rule:nonzero;stroke:none"
         d="M 1045.19,3.60156 V 98.6992 H 918.293 V 3.60156 H 901.191 V 203.691 h 17.102 v -89.402 h 126.897 v 89.402 h 17.39 V 3.60156 h -17.39" /><path
         id="path90"
         style="fill:#100f0d;fill-opacity:1;fill-rule:nonzero;stroke:none"
         d="m 1256.38,3.60156 -82.49,94.19924 -22.2,-24.3125 V 3.60156 h -17.1 V 203.691 h 17.1 V 94.1914 l 96.59,109.4996 h 21.91 l -85.21,-95.39 93.3,-104.69944 h -21.9" /><path
         id="path92"
         style="fill:#100f0d;fill-opacity:1;fill-rule:nonzero;stroke:none"
         d="m 1404.88,185.398 -47.1,-117.0074 h 94.51 z m 72.9,-181.79644 -19.8,49.19924 h -105.89 l -19.8,-49.19924 h -19.8 l 81.89,200.08944 h 21.3 l 81.9,-200.08944 h -19.8" /><path
         id="path94"
         style="fill:#100f0d;fill-opacity:1;fill-rule:nonzero;stroke:none"
         d="m 1544.08,14.1016 c 0,6.8984 6,12.8984 13.2,12.8984 7.2,0 13.5,-6 13.5,-12.8984 0,-7.20316 -6.3,-13.500037 -13.5,-13.500037 -7.2,0 -13.2,6.296877 -13.2,13.500037" /><path
         id="path96"
         style="fill:#100f0d;fill-opacity:1;fill-rule:nonzero;stroke:none"
         d="m 1755.27,145.191 c 0,25.207 -17.99,42.899 -44.39,42.899 h -56.09 V 102 h 56.09 c 26.4,0 44.39,18 44.39,43.191 z m -0.29,-141.58944 -56.1,82.78904 h -44.09 V 3.60156 h -17.1 V 203.691 h 74.69 c 34.5,0 60.9,-21.902 60.9,-58.5 0,-36.3 -25.8,-56.4019 -55.5,-57.6012 l 57.89,-83.98824 h -20.69" /><path
         id="path98"
         style="fill:#100f0d;fill-opacity:1;fill-rule:nonzero;stroke:none"
         d="M 1838.39,80.3984 V 203.691 h 17.39 V 80.6992 c 0,-40.5 21.3,-65.0976 60.61,-65.0976 39.59,0 60.59,24.5976 60.59,65.0976 V 203.691 h 17.4 V 80.3984 C 1994.38,30.8906 1967.98,0 1916.39,0 c -51.3,0 -78,31.1992 -78,80.3984" /></g></g></svg>